{"glyphs":{" ":{"ha":1389,"x_min":0,"x_max":0,"o":""},"か":{"ha":1389,"x_min":161,"x_max":1281,"o":"m 1281 393 q 1240 340 1281 340 q 1203 350 1219 340 q 1158 361 1187 361 q 996 355 1076 361 q 993 355 994 355 q 977 372 977 355 q 992 389 977 385 q 1156 425 1108 411 q 1175 446 1175 431 q 1109 581 1175 501 q 966 705 1050 652 q 958 721 958 711 q 970 736 958 736 q 989 732 981 736 q 1206 566 1116 680 q 1281 393 1281 471 m 600 745 q 689 754 652 754 q 833 558 833 754 q 815 404 833 497 q 778 264 799 322 q 664 66 733 129 q 549 11 608 11 q 499 52 509 11 q 478 92 494 72 q 400 172 458 117 q 395 185 395 178 q 407 199 395 199 q 421 192 412 199 q 538 118 491 142 q 574 111 551 111 q 625 134 603 111 q 726 340 680 194 q 764 585 764 474 q 682 709 764 709 q 572 686 637 709 q 239 46 405 326 q 201 24 227 24 q 161 58 161 24 q 174 95 161 77 q 499 667 385 422 q 357 614 449 650 q 304 589 326 603 q 275 578 289 578 q 217 604 245 578 q 165 695 168 652 q 181 727 165 727 q 193 713 185 727 q 261 665 220 665 q 359 684 296 665 q 526 730 501 722 q 589 895 562 811 q 600 951 600 928 q 570 989 600 972 q 512 1006 545 1004 q 496 1018 496 1008 q 507 1032 496 1025 q 560 1043 523 1043 q 661 1012 609 1043 q 710 945 710 981 q 690 917 710 926 q 656 871 673 908 q 600 745 612 770 z "},"の":{"ha":1389,"x_min":179,"x_max":1208,"o":"m 675 878 q 703 775 703 834 q 676 639 703 724 q 476 271 604 433 q 339 178 400 178 q 228 250 276 178 q 179 433 179 328 q 330 778 179 635 q 733 928 490 928 q 1092 789 957 928 q 1208 494 1208 670 q 998 150 1208 277 q 619 41 838 54 q 616 41 617 41 q 595 57 595 41 q 619 79 595 74 q 974 227 840 117 q 1117 518 1117 344 q 1000 785 1117 685 q 750 878 901 870 q 713 879 732 879 q 675 878 692 879 m 632 872 q 354 732 464 844 q 241 457 241 617 q 275 317 241 381 q 340 269 300 269 q 437 350 376 269 q 629 714 564 517 q 648 814 648 770 q 632 872 648 856 z "},"り":{"ha":1389,"x_min":435,"x_max":969,"o":"m 501 496 q 528 579 511 529 q 553 652 549 639 q 676 905 615 830 q 769 962 722 962 q 919 842 861 962 q 969 586 969 736 q 834 163 969 329 q 519 -43 720 23 q 490 -50 498 -50 q 476 -31 476 -50 q 497 -13 476 -22 q 793 234 692 69 q 884 581 884 382 q 844 843 884 751 q 762 918 811 918 q 696 865 729 918 q 574 572 630 766 q 547 424 547 479 q 550 387 547 412 q 554 353 554 366 q 522 318 554 318 q 481 345 502 318 q 453 406 463 369 q 435 578 435 471 q 464 835 435 688 q 485 979 485 935 q 456 1071 485 1041 q 448 1090 448 1079 q 465 1101 448 1101 q 507 1078 479 1101 q 547 1031 532 1057 q 572 945 572 989 q 563 907 572 924 q 541 863 550 887 q 488 576 488 732 q 496 496 488 530 l 501 496 z "},"れ":{"ha":1389,"x_min":127,"x_max":1351,"o":"m 463 465 q 468 163 463 299 q 472 109 469 148 q 475 61 475 81 q 426 -37 475 -37 q 398 -8 406 -37 q 359 79 389 33 q 250 213 320 140 q 217 170 236 195 q 194 141 198 146 q 159 121 178 121 q 127 157 127 121 q 154 213 127 186 q 210 274 169 228 q 408 570 315 393 q 414 671 410 585 q 311 618 334 633 q 283 600 289 606 q 250 589 270 589 q 193 628 224 589 q 159 703 159 667 q 173 728 159 728 q 189 713 178 728 q 250 666 218 666 q 296 677 262 666 q 416 731 355 699 q 420 956 420 851 q 353 1049 420 1029 q 336 1068 336 1053 q 374 1086 336 1086 q 479 1043 421 1086 q 526 981 526 1008 q 512 951 526 962 q 490 902 496 939 q 477 751 481 850 q 500 756 490 756 q 528 741 512 756 q 540 716 540 728 q 526 691 540 707 q 468 587 497 652 l 465 539 q 703 767 618 698 q 887 865 823 865 q 992 812 955 865 q 1019 726 1019 773 q 994 501 1019 676 q 970 236 970 333 q 991 159 970 179 q 1048 142 1009 142 q 1201 208 1120 142 q 1312 340 1268 264 q 1331 360 1323 360 q 1351 343 1351 360 q 1347 328 1351 338 q 1218 143 1299 218 q 1051 71 1141 71 q 900 225 900 71 q 918 509 900 346 q 935 721 935 652 q 880 814 935 814 q 711 718 823 814 q 463 465 587 611 m 268 239 q 394 125 313 194 q 401 123 397 123 q 407 130 407 123 q 407 338 407 269 l 407 433 q 268 239 359 367 z "},"ア":{"ha":1389,"x_min":191,"x_max":1190,"o":"m 760 614 q 670 300 739 444 q 391 -11 571 100 q 352 -28 363 -28 q 335 -9 335 -28 q 351 12 335 2 q 608 342 522 140 q 680 675 680 512 q 666 730 680 722 q 606 746 646 743 q 593 755 593 746 q 610 779 593 768 q 654 790 628 790 q 749 773 711 790 q 779 736 779 762 q 776 722 779 731 q 771 709 772 713 q 766 664 769 704 q 1041 891 916 764 q 1046 901 1046 897 q 1029 909 1046 909 q 734 886 954 909 q 432 847 502 860 q 356 826 370 836 q 317 815 340 815 q 222 879 279 815 q 191 946 191 919 q 203 972 191 972 q 227 956 210 972 q 323 911 273 911 q 452 919 369 911 q 979 964 754 947 q 1041 981 1027 967 q 1065 991 1052 991 q 1142 947 1091 991 q 1190 876 1190 904 q 1156 846 1190 850 q 1080 817 1109 839 q 760 614 929 705 z "},"ィ":{"ha":1389,"x_min":302,"x_max":933,"o":"m 712 513 q 347 212 539 326 q 318 200 327 200 q 307 208 311 200 q 302 220 302 214 q 318 239 302 227 q 623 510 468 346 q 798 722 724 616 q 817 766 817 747 q 774 808 817 788 q 758 823 758 816 q 803 839 758 839 q 884 804 835 839 q 933 745 933 772 q 912 717 933 724 q 875 690 891 710 q 744 546 840 648 q 804 486 804 505 q 800 471 804 479 q 797 460 797 462 q 791 396 793 439 q 790 315 790 361 q 791 210 790 265 q 793 13 793 144 q 758 -36 793 -36 q 724 -7 738 -36 q 704 62 704 32 q 711 89 704 75 q 719 138 717 102 q 723 297 720 153 q 724 440 724 364 q 712 513 724 500 z "},"イ":{"ha":1389,"x_min":229,"x_max":991,"o":"m 732 668 q 279 283 487 406 q 248 272 260 272 q 229 290 229 272 q 250 317 229 301 q 621 655 427 443 q 850 944 763 811 q 865 991 865 966 q 814 1038 865 1008 q 793 1057 793 1050 q 836 1076 793 1076 q 939 1032 876 1076 q 991 968 991 996 q 961 928 991 942 q 922 890 951 924 q 777 720 861 818 q 836 621 836 654 q 831 596 836 607 q 823 562 823 580 q 822 334 822 489 l 827 35 q 792 -29 827 -29 q 743 11 761 -29 q 724 89 724 54 q 730 118 724 104 q 742 187 740 140 q 746 593 746 377 q 732 668 746 652 z "},"ウ":{"ha":1389,"x_min":260,"x_max":1129,"o":"m 421 725 q 433 519 425 651 q 437 431 437 457 q 408 386 437 386 q 367 411 385 386 q 349 455 349 434 q 351 479 349 468 q 353 521 353 486 q 345 716 353 601 q 281 815 336 779 q 260 838 260 829 q 296 851 260 851 q 415 786 334 851 q 481 791 454 789 q 568 800 509 794 q 654 807 629 805 l 653 968 q 591 1030 653 1018 q 566 1047 566 1036 q 585 1069 566 1059 q 618 1078 601 1078 q 707 1051 652 1078 q 764 994 764 1023 q 743 960 764 974 q 732 929 734 954 l 730 812 q 853 820 736 813 q 947 826 909 823 q 979 840 967 828 q 1008 852 991 852 q 1075 819 1025 852 q 1129 758 1129 784 q 1104 729 1129 736 q 1074 701 1081 721 q 884 325 989 480 q 496 -39 718 85 q 466 -52 471 -52 q 449 -32 449 -52 q 464 -12 449 -22 q 854 426 700 155 q 991 749 950 595 q 993 758 993 755 q 975 766 993 766 q 736 755 909 766 q 421 725 589 746 z "},"エ":{"ha":1389,"x_min":138,"x_max":1246,"o":"m 726 298 q 920 305 792 302 q 1038 310 1008 308 q 1084 318 1072 312 q 1124 332 1110 332 q 1219 289 1156 332 q 1246 252 1246 273 q 1235 228 1246 237 q 1210 218 1225 218 q 1118 229 1196 218 q 950 240 1050 237 q 911 240 930 240 q 652 230 793 240 q 338 195 564 224 q 294 180 313 191 q 258 172 278 172 q 168 236 224 172 q 138 307 138 271 q 149 323 138 323 q 167 314 157 323 q 267 264 211 267 q 281 264 273 264 q 354 269 300 264 q 650 296 447 278 q 656 505 653 363 q 657 652 657 559 q 643 692 657 674 q 612 721 631 706 q 569 718 604 720 q 506 713 536 715 q 436 710 456 710 q 350 751 392 710 q 313 808 313 789 q 328 823 313 823 q 347 817 340 823 q 477 771 399 771 q 651 786 528 771 q 871 822 781 801 q 922 840 905 830 q 965 852 947 852 q 1057 825 1008 852 q 1076 794 1076 814 q 1048 765 1076 770 q 975 758 1025 761 q 696 729 909 753 q 737 703 713 722 q 754 672 754 689 q 747 644 754 659 q 741 607 741 627 l 733 442 q 726 298 730 366 z "},"オ":{"ha":1389,"x_min":161,"x_max":1270,"o":"m 835 730 q 1042 745 968 739 q 1097 754 1084 748 q 1143 771 1135 771 q 1236 750 1190 771 q 1270 705 1270 735 q 1256 680 1270 690 q 1235 673 1246 673 q 1160 675 1211 673 q 999 680 1066 680 q 836 674 928 680 q 842 376 838 598 q 846 203 843 338 q 848 121 848 140 q 831 39 848 65 q 789 5 820 21 q 746 -8 764 -8 q 713 22 724 -8 q 691 46 709 36 q 572 90 664 64 q 559 113 559 94 q 572 126 559 126 q 593 123 580 126 q 741 107 681 107 q 764 111 760 107 q 768 127 768 114 q 768 256 768 186 q 767 604 768 396 q 502 317 681 475 q 208 96 355 186 q 180 86 188 86 q 161 100 161 86 q 180 127 161 115 q 471 375 332 236 q 717 663 621 525 q 385 617 487 635 q 343 600 364 614 q 309 591 326 591 q 205 652 258 591 q 170 728 170 694 q 182 743 170 743 q 211 724 192 743 q 294 681 257 681 q 382 686 330 681 q 763 722 659 713 q 760 935 763 873 q 747 978 758 968 q 664 1002 726 996 q 652 1015 652 1004 q 661 1031 652 1021 q 715 1052 682 1052 q 815 1025 755 1052 q 867 974 867 1004 q 846 938 867 959 q 836 895 838 930 q 835 730 835 856 z "},"カ":{"ha":1389,"x_min":197,"x_max":1143,"o":"m 720 742 q 962 770 913 764 q 1000 782 991 772 q 1036 803 1025 803 q 1107 751 1058 803 q 1143 692 1143 713 q 1121 657 1143 673 q 1103 623 1107 649 q 1067 440 1078 484 q 981 161 1024 262 q 853 40 928 40 q 816 81 825 40 q 778 122 811 100 q 690 172 716 159 q 675 191 675 178 q 690 207 675 207 q 727 199 693 207 q 861 166 831 166 q 905 194 892 166 q 994 476 962 323 q 1029 699 1029 630 q 1014 718 1029 718 q 960 715 988 718 q 705 685 819 703 q 538 306 652 478 q 399 146 486 225 q 249 31 326 78 q 214 18 227 18 q 197 38 197 18 q 217 62 197 47 q 474 334 368 175 q 623 673 570 477 q 471 649 483 651 q 382 629 397 637 q 350 620 362 620 q 272 673 310 620 q 237 750 237 721 q 251 771 237 771 q 273 754 257 771 q 359 707 316 707 q 456 714 391 707 q 549 724 485 717 q 639 734 603 730 q 668 930 668 886 q 645 980 668 964 q 597 999 630 991 q 583 1011 583 1002 q 603 1031 583 1023 q 635 1039 619 1039 q 725 1007 674 1039 q 785 939 785 969 q 764 909 785 926 q 749 882 753 898 q 720 742 724 771 z "},"ガ":{"ha":1389,"x_min":168,"x_max":1343,"o":"m 1160 1083 q 1182 1079 1168 1083 q 1281 1033 1234 1065 q 1343 944 1343 989 q 1332 916 1343 926 q 1312 907 1323 907 q 1265 944 1289 907 q 1152 1055 1229 1008 q 1146 1069 1146 1059 q 1160 1083 1146 1083 m 1044 997 q 1057 996 1053 997 q 1160 940 1120 973 q 1219 850 1219 892 q 1185 810 1219 810 q 1139 855 1163 810 q 1036 968 1107 916 q 1028 982 1028 974 q 1044 997 1028 997 m 690 728 q 932 756 876 750 q 971 768 962 759 q 1007 789 996 789 q 1078 738 1029 789 q 1114 678 1114 700 q 1092 644 1114 660 q 1074 609 1078 635 q 1038 427 1048 470 q 951 147 996 249 q 824 26 899 26 q 787 66 795 26 q 749 109 782 87 q 661 159 688 146 q 646 178 646 165 q 661 193 646 193 q 698 185 665 193 q 832 153 802 153 q 876 180 863 153 q 964 463 933 310 q 1000 685 1000 616 q 985 705 1000 705 q 930 702 959 705 q 675 671 791 689 q 509 292 623 465 q 370 132 456 211 q 220 16 297 64 q 185 4 198 4 q 168 24 168 4 q 188 47 168 33 q 445 319 338 160 q 593 659 541 463 q 441 635 465 639 q 353 615 368 623 q 321 606 333 606 q 243 659 281 606 q 208 736 208 707 q 222 757 208 757 q 244 740 228 757 q 330 693 287 693 q 427 700 361 693 q 519 710 456 703 q 610 720 574 716 q 639 917 639 873 q 616 966 639 950 q 568 985 601 977 q 554 998 554 989 q 574 1018 554 1009 q 606 1025 590 1025 q 696 994 645 1025 q 755 925 755 956 q 734 895 755 913 q 720 868 724 884 q 690 728 695 757 z "},"キ":{"ha":1389,"x_min":227,"x_max":1177,"o":"m 763 505 q 982 556 897 532 q 1025 575 1013 565 q 1071 589 1043 589 q 1146 574 1116 589 q 1177 535 1177 557 q 1131 500 1177 500 q 1046 496 1075 500 q 772 449 953 486 q 844 96 802 290 q 857 22 857 41 q 814 -24 857 -24 q 770 37 779 -24 q 705 432 720 351 q 463 364 578 403 q 412 343 420 351 q 363 322 390 322 q 300 341 338 322 q 242 380 265 358 q 227 417 227 394 q 237 428 227 428 q 254 422 243 428 q 321 407 287 407 q 406 418 357 407 q 551 455 433 425 q 693 490 633 476 q 653 701 668 632 q 493 659 593 687 q 437 637 451 646 q 400 627 416 627 q 315 667 360 627 q 273 725 273 707 q 285 746 273 746 q 302 738 288 746 q 389 707 351 707 q 468 718 421 707 q 642 756 538 732 q 600 954 627 840 q 568 1000 593 988 q 506 1010 547 1010 q 492 1021 492 1010 q 510 1042 492 1027 q 554 1059 531 1059 q 667 1034 608 1059 q 710 991 710 1015 q 697 967 710 982 q 689 932 689 957 q 710 772 689 903 q 878 821 755 783 q 913 840 895 827 q 960 857 935 857 q 1019 850 992 857 q 1055 814 1055 841 q 1029 783 1055 788 q 930 764 1009 780 q 721 714 854 748 q 743 602 728 671 q 763 505 757 534 z "},"ギ":{"ha":1389,"x_min":208,"x_max":1333,"o":"m 1150 1092 q 1172 1088 1158 1092 q 1271 1042 1223 1074 q 1333 953 1333 998 q 1322 924 1333 935 q 1301 916 1313 916 q 1255 953 1278 916 q 1141 1064 1219 1017 q 1136 1078 1136 1068 q 1150 1092 1136 1092 m 1034 1006 q 1047 1004 1043 1006 q 1150 949 1110 982 q 1210 859 1210 901 q 1175 819 1210 819 q 1129 864 1153 819 q 1026 977 1097 924 q 1018 990 1018 983 q 1034 1006 1018 1006 m 745 496 q 964 547 878 524 q 1007 567 995 556 q 1053 581 1025 581 q 1128 566 1097 581 q 1158 526 1158 549 q 1112 492 1158 492 q 1027 488 1057 492 q 754 441 936 478 q 826 87 783 282 q 839 14 839 33 q 795 -32 839 -32 q 751 29 760 -32 q 686 424 701 342 q 444 356 559 394 q 394 335 401 342 q 345 314 372 314 q 281 333 320 314 q 224 372 247 350 q 208 409 208 386 q 219 420 208 420 q 236 414 224 420 q 302 399 269 399 q 387 410 338 399 q 533 447 420 418 q 675 482 616 468 q 635 692 650 624 q 475 650 573 678 q 418 629 433 637 q 382 618 397 618 q 297 659 342 618 q 254 717 254 698 q 267 738 254 738 q 283 730 270 738 q 371 699 333 699 q 450 710 403 699 q 623 747 515 724 q 582 946 608 831 q 550 992 574 980 q 488 1002 529 1002 q 473 1013 473 1002 q 492 1034 473 1019 q 536 1050 513 1050 q 648 1025 590 1050 q 692 983 692 1007 q 679 959 692 974 q 671 924 671 948 q 692 764 671 895 q 860 813 736 775 q 895 832 877 819 q 942 849 916 849 q 1000 842 974 849 q 1036 806 1036 833 q 1011 775 1036 779 q 911 756 991 772 q 703 706 836 740 q 724 593 710 663 q 745 496 739 526 z "},"ク":{"ha":1389,"x_min":279,"x_max":1107,"o":"m 654 793 q 322 454 510 593 q 298 446 309 446 q 279 465 279 446 q 298 492 279 476 q 629 902 479 658 q 653 962 653 942 q 605 1015 653 989 q 588 1032 588 1023 q 634 1048 588 1048 q 727 1004 669 1048 q 770 943 770 972 q 745 907 770 920 q 681 833 729 899 q 699 832 686 832 q 763 838 718 832 q 931 864 791 842 q 971 885 954 867 q 1000 897 984 897 q 1069 860 1019 897 q 1107 808 1107 829 q 1081 778 1107 792 q 1050 751 1058 765 q 779 357 930 524 q 328 4 585 142 q 298 -5 311 -5 q 279 16 279 -5 q 295 36 279 26 q 717 399 547 192 q 974 793 878 593 q 977 806 977 798 q 968 812 977 812 q 811 787 940 812 q 725 777 755 777 q 654 793 699 777 z "},"グ":{"ha":1389,"x_min":244,"x_max":1348,"o":"m 1165 1109 q 1187 1105 1173 1109 q 1286 1059 1238 1092 q 1348 970 1348 1016 q 1337 942 1348 953 q 1316 933 1328 933 q 1270 970 1293 933 q 1156 1082 1234 1035 q 1151 1095 1151 1086 q 1165 1109 1151 1109 m 1048 1024 q 1062 1023 1058 1024 q 1165 967 1125 1000 q 1225 877 1225 918 q 1190 836 1225 836 q 1144 882 1168 836 q 1041 995 1112 943 q 1033 1008 1033 1001 q 1048 1024 1033 1024 m 619 779 q 287 440 472 575 q 262 432 273 432 q 244 450 244 432 q 264 477 244 460 q 595 886 445 642 q 619 946 619 926 q 571 999 619 973 q 554 1017 554 1007 q 600 1032 554 1032 q 692 990 636 1032 q 734 929 734 958 q 709 893 734 906 q 646 820 694 886 q 663 819 651 819 q 728 824 683 819 q 896 850 750 827 q 936 871 918 854 q 965 884 948 884 q 1034 846 984 884 q 1071 795 1071 817 q 1044 764 1071 779 q 1014 738 1021 751 q 743 345 893 510 q 293 -10 547 126 q 267 -18 278 -18 q 245 -1 245 -18 q 260 22 245 14 q 682 385 513 178 q 939 779 843 580 q 942 792 942 785 q 934 799 942 799 q 777 774 905 799 q 690 763 722 763 q 619 779 664 763 z "},"ケ":{"ha":1389,"x_min":155,"x_max":1225,"o":"m 437 715 q 207 475 319 562 q 175 458 184 458 q 155 477 155 458 q 174 501 155 484 q 376 750 277 606 q 473 913 416 808 q 500 977 500 962 q 454 1032 500 1005 q 436 1051 436 1042 q 469 1071 436 1071 q 568 1029 511 1071 q 618 967 618 994 q 594 929 618 943 q 565 901 575 918 q 461 749 515 823 q 524 741 486 741 q 607 746 564 741 q 1005 799 787 766 q 1066 820 1039 804 q 1111 831 1085 831 q 1206 799 1149 831 q 1225 763 1225 788 q 1211 744 1225 751 q 1183 738 1199 738 q 1033 731 1127 738 q 917 720 984 727 q 814 709 847 712 q 871 659 847 686 q 891 616 891 635 q 876 583 891 595 q 846 532 863 570 q 336 -51 678 146 q 321 -55 328 -55 q 307 -48 314 -55 q 301 -37 301 -43 q 311 -22 301 -30 q 773 576 627 220 q 785 633 785 607 q 748 703 785 674 q 675 696 720 701 q 608 688 619 689 q 568 681 583 686 q 532 674 547 674 q 437 715 494 674 z "},"ゲ":{"ha":1389,"x_min":136,"x_max":1350,"o":"m 1166 1160 q 1189 1156 1175 1160 q 1288 1109 1240 1142 q 1350 1021 1350 1066 q 1339 992 1350 1003 q 1318 983 1330 983 q 1272 1021 1295 983 q 1158 1132 1236 1085 q 1153 1145 1153 1136 q 1166 1160 1153 1160 m 1050 1074 q 1064 1072 1060 1074 q 1167 1017 1127 1050 q 1227 926 1227 968 q 1192 886 1227 886 q 1146 932 1170 886 q 1043 1044 1115 992 q 1035 1059 1035 1050 q 1050 1074 1035 1074 m 418 715 q 188 475 300 562 q 156 458 165 458 q 136 477 136 458 q 155 501 136 484 q 357 750 258 606 q 454 913 397 808 q 481 977 481 962 q 435 1032 481 1005 q 417 1051 417 1042 q 450 1071 417 1071 q 549 1029 492 1071 q 599 967 599 994 q 575 929 599 943 q 546 901 556 918 q 442 749 496 823 q 505 741 467 741 q 588 746 545 741 q 986 799 768 766 q 1047 820 1020 804 q 1092 831 1066 831 q 1187 799 1131 831 q 1206 763 1206 788 q 1192 744 1206 751 q 1164 738 1180 738 q 1014 731 1108 738 q 898 720 965 727 q 795 709 828 712 q 852 659 828 686 q 872 616 872 635 q 857 583 872 595 q 827 532 844 570 q 317 -51 659 146 q 302 -55 309 -55 q 288 -48 295 -55 q 282 -37 282 -43 q 292 -22 282 -30 q 754 576 608 220 q 766 633 766 607 q 729 703 766 674 q 656 696 701 701 q 589 688 600 689 q 549 681 564 686 q 513 674 528 674 q 418 715 475 674 z "},"コ":{"ha":1389,"x_min":282,"x_max":1122,"o":"m 990 724 q 477 678 713 713 q 429 664 445 673 q 407 659 420 659 q 314 718 368 659 q 283 782 283 751 q 294 804 283 804 q 315 789 300 804 q 416 750 354 750 q 532 755 469 750 q 935 786 827 779 q 982 802 969 789 q 1019 824 1004 824 q 1078 787 1040 824 q 1122 720 1122 742 q 1096 693 1122 707 q 1074 667 1076 685 q 1034 487 1065 627 q 999 326 1013 386 q 1065 271 1065 302 q 1039 241 1065 241 l 950 245 q 796 238 883 245 q 481 206 646 226 q 439 195 452 203 q 406 185 424 185 q 328 237 383 185 q 294 282 308 255 q 282 319 282 305 q 299 338 282 338 q 322 321 306 338 q 420 275 374 275 q 538 283 442 275 q 924 319 714 300 q 990 724 966 530 z "},"サ":{"ha":1389,"x_min":135,"x_max":1260,"o":"m 563 663 q 838 685 701 677 q 838 742 838 723 l 837 864 q 825 958 837 945 q 742 996 808 979 q 731 1007 731 1000 q 749 1027 731 1017 q 787 1035 764 1035 q 884 1011 826 1035 q 942 954 942 987 q 928 928 942 942 q 914 871 914 914 q 911 690 914 840 q 1048 702 972 693 q 1092 711 1084 707 q 1133 722 1114 722 q 1236 692 1185 722 q 1260 652 1260 677 q 1219 621 1260 621 q 1138 628 1194 621 q 972 633 1081 633 q 910 633 931 633 q 798 220 905 367 q 453 -24 670 44 q 430 -28 439 -28 q 413 -14 413 -28 q 431 7 413 -1 q 620 123 533 51 q 743 260 696 187 q 836 629 832 396 q 563 607 689 622 l 563 509 q 563 383 563 410 q 527 315 563 315 q 482 380 482 315 q 486 480 482 396 q 490 597 490 554 q 364 576 431 591 q 307 558 324 569 q 274 547 290 547 q 182 597 236 547 q 135 668 135 641 q 149 682 135 682 q 170 671 157 682 q 264 635 218 635 q 335 639 294 635 q 492 656 391 646 q 492 798 492 749 q 477 854 492 841 q 406 889 454 874 q 387 901 387 894 q 399 918 387 912 q 438 928 416 928 q 542 896 475 928 q 587 853 587 875 q 577 825 587 839 q 564 770 566 809 q 563 663 563 741 z "},"シ":{"ha":1389,"x_min":227,"x_max":1227,"o":"m 411 920 q 400 936 400 928 q 421 950 400 950 q 555 905 478 950 q 639 806 639 859 q 621 765 639 780 q 589 753 608 753 q 546 782 566 753 q 411 920 496 859 m 422 171 q 479 192 441 171 q 888 460 681 299 q 1177 720 1053 589 q 1206 746 1201 746 q 1220 740 1213 746 q 1227 728 1227 734 q 1211 699 1227 720 q 920 396 1120 568 q 519 107 747 250 q 492 81 503 97 q 450 53 475 53 q 368 107 420 53 q 315 212 315 163 q 330 248 315 248 q 353 227 340 248 q 388 189 366 206 q 422 171 409 171 m 240 633 q 227 653 227 641 q 248 667 227 667 q 378 635 306 667 q 477 536 477 591 q 428 481 477 481 q 374 521 402 481 q 240 633 323 589 z "},"ジ":{"ha":1389,"x_min":205,"x_max":1304,"o":"m 1120 1118 q 1143 1114 1128 1118 q 1242 1068 1194 1101 q 1304 979 1304 1025 q 1293 951 1304 962 q 1272 942 1284 942 q 1226 979 1249 942 q 1112 1090 1190 1044 q 1107 1105 1107 1095 q 1120 1118 1107 1118 m 1004 1032 q 1018 1031 1014 1032 q 1121 975 1081 1008 q 1181 885 1181 927 q 1146 845 1181 845 q 1100 890 1124 845 q 997 1003 1069 951 q 989 1017 989 1009 q 1004 1032 989 1032 m 390 911 q 379 928 379 920 q 400 942 379 942 q 534 897 457 942 q 618 798 618 850 q 600 757 618 772 q 568 745 587 745 q 525 774 545 745 q 390 911 475 851 m 401 163 q 458 184 420 163 q 867 452 660 291 q 1156 711 1031 581 q 1185 737 1179 737 q 1199 731 1192 737 q 1206 719 1206 726 q 1190 690 1206 711 q 899 387 1099 559 q 498 99 726 241 q 471 73 481 89 q 429 45 454 45 q 347 99 399 45 q 294 203 294 154 q 309 239 294 239 q 332 218 319 239 q 367 180 345 198 q 401 163 388 163 m 219 625 q 205 645 205 632 q 227 659 205 659 q 357 627 285 659 q 456 528 456 583 q 407 473 456 473 q 353 513 381 473 q 219 625 302 581 z "},"ス":{"ha":1389,"x_min":165,"x_max":1189,"o":"m 777 490 q 1124 275 1002 399 q 1189 165 1189 207 q 1149 114 1189 114 q 1090 151 1116 114 q 745 457 934 367 q 220 87 518 214 q 182 77 195 77 q 165 91 165 77 q 176 109 165 102 q 639 454 460 264 q 890 794 789 613 q 897 810 897 806 q 890 812 897 812 q 509 760 795 812 q 461 744 476 753 q 427 734 444 734 q 331 793 387 734 q 296 867 296 828 q 309 888 296 888 q 327 876 316 888 q 431 823 380 823 q 536 831 441 823 l 854 865 q 909 888 889 869 q 935 904 924 904 q 1003 872 957 904 q 1042 819 1042 844 q 1007 789 1042 803 q 964 751 980 779 q 777 490 891 631 z "},"ズ":{"ha":1389,"x_min":132,"x_max":1291,"o":"m 1107 1135 q 1129 1131 1115 1135 q 1228 1084 1181 1117 q 1291 996 1291 1041 q 1279 967 1291 978 q 1259 958 1270 958 q 1213 996 1236 958 q 1099 1107 1176 1060 q 1093 1120 1093 1111 q 1107 1135 1093 1135 m 991 1049 q 1004 1048 1000 1049 q 1107 992 1067 1025 q 1167 902 1167 943 q 1133 861 1167 861 q 1086 907 1110 861 q 983 1020 1055 968 q 975 1034 975 1026 q 991 1049 975 1049 m 743 484 q 1090 268 969 391 q 1156 159 1156 200 q 1116 107 1156 107 q 1057 144 1083 107 q 711 450 901 360 q 186 80 485 206 q 149 69 162 69 q 132 83 132 69 q 143 101 132 95 q 606 447 427 256 q 857 787 755 606 q 864 803 864 800 q 857 806 864 806 q 475 753 762 806 q 428 737 443 747 q 393 728 411 728 q 298 786 354 728 q 263 859 263 821 q 275 880 263 880 q 294 869 283 880 q 398 817 347 817 q 503 825 410 817 l 821 859 q 876 882 856 863 q 901 897 890 897 q 970 865 924 897 q 1008 812 1008 837 q 974 782 1008 796 q 930 745 947 772 q 743 484 858 624 z "},"ソ":{"ha":1389,"x_min":304,"x_max":1114,"o":"m 989 868 q 916 933 989 901 q 897 948 897 941 q 937 968 897 968 q 1065 918 998 968 q 1114 854 1114 883 q 1095 814 1114 826 q 1067 782 1076 801 q 792 335 944 517 q 405 4 614 121 q 374 -7 382 -7 q 355 14 355 -7 q 376 39 355 26 q 752 406 590 184 q 960 768 880 583 q 989 868 989 836 m 318 852 q 304 875 304 869 q 321 889 304 889 q 349 881 332 889 q 466 802 414 849 q 531 679 531 741 q 481 618 531 618 q 432 663 448 618 q 318 852 400 759 z "},"タ":{"ha":1389,"x_min":210,"x_max":1099,"o":"m 688 856 q 920 885 785 859 q 968 903 954 890 q 1002 917 985 917 q 1060 884 1022 917 q 1099 828 1099 850 q 1069 798 1099 816 q 1034 760 1052 788 q 865 496 927 584 q 1001 343 1001 404 q 964 296 1001 296 q 901 339 936 296 q 814 432 867 386 q 542 172 712 298 q 251 -1 401 68 q 231 -7 240 -7 q 210 10 210 -7 q 223 31 210 23 q 758 482 562 227 q 583 581 687 536 q 569 594 569 586 q 585 611 569 611 q 609 608 590 611 q 801 536 682 595 q 966 810 887 653 q 970 825 970 817 q 959 833 970 833 q 817 811 949 833 q 734 799 747 799 q 664 814 700 799 q 302 435 487 570 q 282 428 292 428 q 264 444 264 428 q 273 464 264 456 q 642 930 500 677 q 659 979 659 962 q 601 1032 659 1011 q 586 1046 586 1038 q 631 1063 586 1063 q 705 1036 670 1063 q 766 960 766 992 q 750 928 766 941 q 721 901 729 912 q 688 856 711 890 z "},"ダ":{"ha":1389,"x_min":183,"x_max":1348,"o":"m 1165 1133 q 1187 1129 1173 1133 q 1286 1083 1238 1116 q 1348 994 1348 1040 q 1337 966 1348 977 q 1316 957 1328 957 q 1270 994 1293 957 q 1156 1105 1234 1059 q 1151 1120 1151 1109 q 1165 1133 1151 1133 m 1048 1048 q 1062 1046 1058 1048 q 1165 991 1125 1024 q 1225 901 1225 942 q 1190 860 1225 860 q 1144 906 1168 860 q 1041 1019 1113 966 q 1033 1032 1033 1025 q 1048 1048 1033 1048 m 661 839 q 893 868 760 842 q 941 886 928 874 q 975 900 958 900 q 1034 867 996 900 q 1072 811 1072 833 q 1043 781 1072 799 q 1007 743 1026 771 q 839 479 902 569 q 975 327 975 387 q 937 279 975 279 q 875 322 909 279 q 787 415 840 369 q 515 156 686 281 q 224 -18 374 52 q 204 -24 214 -24 q 183 -7 183 -24 q 197 14 183 6 q 732 465 535 210 q 557 564 661 519 q 543 578 543 570 q 558 595 543 595 q 583 592 564 595 q 774 519 655 578 q 939 793 861 637 q 943 809 943 800 q 932 817 943 817 q 790 795 924 817 q 708 782 722 782 q 637 798 673 782 q 276 418 460 554 q 256 411 266 411 q 237 427 237 411 q 247 447 237 439 q 616 914 473 661 q 633 963 633 946 q 574 1016 633 995 q 559 1029 559 1021 q 604 1046 559 1046 q 679 1020 644 1046 q 740 943 740 976 q 724 911 740 924 q 694 885 703 896 q 661 839 684 873 z "},"ッ":{"ha":1389,"x_min":335,"x_max":1077,"o":"m 579 713 q 572 732 572 723 q 591 743 572 743 q 608 736 597 743 q 695 653 654 707 q 727 564 727 607 q 682 501 727 501 q 653 513 662 501 q 637 561 642 526 q 618 637 633 598 q 579 713 607 670 m 959 651 q 931 683 959 668 q 884 700 906 696 q 877 709 877 702 q 886 722 877 718 q 927 729 899 729 q 1034 693 979 729 q 1077 637 1077 663 q 1059 612 1077 623 q 1027 581 1038 601 q 800 248 926 383 q 463 -4 650 83 q 437 -11 448 -11 q 420 7 420 -11 q 432 25 420 18 q 759 307 627 146 q 939 591 871 444 q 959 651 959 633 m 343 650 q 335 667 335 661 q 341 677 335 671 q 352 681 347 681 q 370 674 356 681 q 452 606 414 648 q 496 509 496 555 q 481 469 496 484 q 452 457 469 457 q 407 513 418 457 q 382 587 400 551 q 343 650 365 621 z "},"ツ":{"ha":1389,"x_min":224,"x_max":1170,"o":"m 549 897 q 535 926 535 918 q 542 939 535 932 q 553 943 547 943 q 579 931 564 943 q 681 832 641 886 q 722 717 722 776 q 711 665 724 685 q 678 645 699 645 q 640 659 652 645 q 624 701 629 671 q 549 897 610 810 m 1035 842 q 1014 871 1035 855 q 947 903 1001 882 q 939 911 939 906 q 951 926 939 916 q 987 936 965 936 q 1052 920 1008 936 q 1113 893 1090 907 q 1170 823 1170 858 q 1146 793 1170 804 q 1113 761 1124 783 q 971 512 1036 609 q 820 319 905 413 q 399 1 629 109 q 367 -9 374 -9 q 349 5 349 -9 q 366 28 349 19 q 761 366 594 166 q 1011 762 916 551 q 1035 842 1035 816 m 239 829 q 224 856 224 848 q 242 871 224 871 q 271 857 250 871 q 370 775 332 818 q 428 650 428 709 q 379 590 428 590 q 328 652 340 590 q 239 829 313 734 z "},"テ":{"ha":1389,"x_min":170,"x_max":1232,"o":"m 499 950 q 614 956 526 950 q 804 979 720 966 q 882 998 861 988 q 932 1010 912 1010 q 994 996 972 1010 q 1024 954 1024 976 q 982 922 1024 927 q 589 890 846 909 q 500 885 531 885 q 410 917 450 885 q 360 983 360 958 q 376 1003 360 1003 q 393 992 380 1003 q 499 950 447 950 m 678 633 q 403 600 524 622 q 331 581 345 589 q 296 571 316 571 q 216 613 259 571 q 170 682 170 654 q 180 706 170 706 q 193 701 186 706 q 288 654 248 654 q 355 659 318 654 q 696 690 475 671 q 863 705 740 694 q 1008 717 949 711 q 1068 731 1052 721 q 1106 745 1089 745 q 1199 715 1147 745 q 1232 671 1232 696 q 1200 642 1232 642 q 1149 646 1183 642 q 1100 649 1119 648 q 1028 650 1065 650 q 956 649 991 650 q 746 639 871 648 q 808 576 808 602 q 800 555 808 566 q 783 526 787 538 q 640 222 746 368 q 372 -21 527 70 q 347 -29 358 -29 q 331 -12 331 -29 q 345 8 331 -2 q 578 262 490 121 q 696 538 661 394 q 701 579 701 562 q 678 633 701 612 z "},"デ":{"ha":1389,"x_min":158,"x_max":1350,"o":"m 1166 1191 q 1188 1187 1174 1191 q 1287 1141 1240 1173 q 1350 1051 1350 1097 q 1338 1023 1350 1034 q 1318 1014 1329 1014 q 1272 1051 1295 1014 q 1158 1163 1235 1116 q 1152 1177 1152 1166 q 1166 1191 1152 1191 m 1050 1104 q 1063 1103 1059 1104 q 1166 1047 1126 1080 q 1226 957 1226 999 q 1192 917 1226 917 q 1145 962 1169 917 q 1042 1075 1114 1023 q 1034 1088 1034 1081 q 1050 1104 1034 1104 m 488 935 q 603 940 514 935 q 793 964 708 950 q 871 982 849 972 q 921 994 901 994 q 982 981 960 994 q 1013 939 1013 960 q 970 907 1013 911 q 578 875 830 894 q 489 869 519 869 q 399 901 439 869 q 349 968 349 942 q 364 987 349 987 q 382 977 368 987 q 488 935 435 935 m 667 618 q 391 585 513 607 q 319 566 334 574 q 284 556 304 556 q 204 597 248 556 q 158 667 158 639 q 169 690 158 690 q 182 685 174 690 q 276 640 236 640 q 344 644 307 640 q 684 675 459 656 l 997 702 q 1057 716 1040 706 q 1095 730 1078 730 q 1187 701 1136 730 q 1221 656 1221 681 q 1189 627 1221 627 q 1138 630 1172 627 q 1088 633 1107 633 q 1017 635 1056 635 q 944 633 977 635 q 734 624 857 632 q 797 562 797 587 q 789 539 797 551 q 772 510 775 522 q 629 208 734 353 q 361 -36 515 56 q 335 -44 347 -44 q 319 -27 319 -44 q 333 -7 319 -17 q 566 248 479 106 q 684 522 650 378 q 690 564 690 546 q 667 618 690 597 z "},"ト":{"ha":1389,"x_min":469,"x_max":1002,"o":"m 639 646 q 859 595 760 635 q 1002 468 1002 538 q 987 427 1002 442 q 961 415 975 415 q 907 447 935 415 q 783 545 864 494 q 639 606 715 585 q 639 370 639 437 l 642 41 q 604 -17 642 -17 q 568 8 586 -17 q 537 93 537 51 q 548 134 537 115 q 559 212 559 157 q 564 482 564 340 q 565 884 565 619 q 559 967 565 956 q 485 1023 545 997 q 469 1039 469 1029 q 483 1055 469 1048 q 504 1060 494 1060 q 618 1029 559 1060 q 677 963 677 998 q 652 921 677 941 q 643 869 645 915 q 639 646 639 780 z "},"ド":{"ha":1389,"x_min":452,"x_max":1224,"o":"m 1040 1124 q 1063 1120 1048 1124 q 1162 1074 1114 1106 q 1224 985 1224 1030 q 1213 956 1224 967 q 1192 947 1204 947 q 1146 985 1169 947 q 1032 1096 1109 1049 q 1027 1109 1027 1099 q 1040 1124 1027 1124 m 924 1038 q 938 1036 934 1038 q 1040 981 1001 1014 q 1100 890 1100 932 q 1065 850 1100 850 q 1019 897 1043 850 q 917 1008 988 956 q 909 1022 909 1015 q 924 1038 909 1038 m 621 632 q 842 582 743 621 q 985 454 985 525 q 970 413 985 429 q 943 401 958 401 q 889 433 917 401 q 766 531 847 481 q 621 592 697 572 q 621 356 621 424 l 624 28 q 587 -31 624 -31 q 550 -5 568 -31 q 519 79 519 37 q 530 121 519 102 q 542 199 542 143 q 546 469 546 326 q 547 870 547 606 q 542 954 547 942 q 467 1009 528 983 q 452 1025 452 1015 q 465 1041 452 1034 q 486 1046 476 1046 q 600 1016 541 1046 q 660 949 660 985 q 635 907 660 928 q 625 856 627 901 q 621 632 621 766 z "},"ニ":{"ha":1389,"x_min":165,"x_max":1221,"o":"m 470 770 q 637 781 522 770 q 840 810 758 793 q 873 824 858 814 q 907 838 895 838 q 995 815 959 838 q 1025 771 1025 797 q 979 739 1025 743 q 547 701 838 729 q 496 694 507 696 q 463 690 475 690 q 364 757 418 690 q 338 807 338 790 q 351 825 338 825 q 367 816 357 825 q 470 770 415 770 m 304 303 q 375 309 314 303 q 1004 347 722 347 q 1050 357 1036 347 q 1089 371 1072 371 q 1164 349 1119 371 q 1211 316 1200 330 q 1221 283 1221 304 q 1194 252 1221 252 q 1147 256 1168 252 q 1060 269 1084 266 q 868 275 987 275 q 403 233 678 275 q 339 211 358 226 q 306 201 326 201 q 210 260 267 201 q 165 338 165 306 q 179 364 165 364 q 208 340 182 364 q 304 303 248 303 z "},"ヌ":{"ha":1389,"x_min":182,"x_max":1107,"o":"m 812 489 q 1086 260 981 382 q 1107 205 1107 234 q 1091 170 1107 184 q 1065 159 1078 159 q 1005 200 1040 159 q 765 428 896 337 q 507 193 630 281 q 229 42 381 102 q 195 35 210 35 q 182 51 182 35 q 201 71 182 62 q 701 473 487 218 q 435 606 587 547 q 418 625 418 612 q 436 641 418 641 q 465 637 448 641 q 744 528 617 596 q 932 857 850 671 q 935 867 935 863 q 922 876 935 876 q 914 875 918 876 q 525 806 783 857 q 476 793 500 801 q 430 781 441 781 q 351 832 395 781 q 311 901 311 878 q 316 919 311 911 q 325 925 320 925 q 351 909 334 925 q 441 871 391 871 q 561 882 474 871 l 865 924 q 911 943 893 928 q 944 960 930 960 q 1018 920 965 960 q 1071 859 1071 878 q 1035 819 1071 829 q 997 784 1013 812 q 812 489 892 596 z "},"ノ":{"ha":1389,"x_min":237,"x_max":1011,"o":"m 878 879 q 811 939 878 907 q 789 960 789 949 q 805 976 789 968 q 832 982 819 982 q 940 942 877 982 q 1011 856 1011 892 q 986 819 1011 831 q 951 786 963 809 q 721 401 850 571 q 283 24 538 161 q 254 14 263 14 q 237 29 237 14 q 258 57 237 41 q 664 455 503 229 q 862 818 785 626 q 878 879 878 859 z "},"バ":{"ha":1389,"x_min":72,"x_max":1289,"o":"m 1105 1032 q 1127 1028 1113 1032 q 1226 982 1179 1015 q 1289 893 1289 939 q 1277 865 1289 876 q 1257 856 1268 856 q 1211 893 1234 856 q 1097 1004 1174 958 q 1091 1019 1091 1008 q 1105 1032 1091 1032 m 989 946 q 1002 945 998 946 q 1105 889 1065 922 q 1165 798 1165 840 q 1131 758 1165 758 q 1084 804 1108 758 q 981 917 1053 865 q 973 930 973 923 q 989 946 973 946 m 826 713 q 805 739 805 728 q 825 753 805 753 q 859 741 829 753 q 1066 600 963 692 q 1158 498 1116 559 q 1200 401 1200 438 q 1186 364 1200 379 q 1154 349 1173 349 q 1120 359 1131 349 q 1100 389 1112 366 q 973 579 1044 496 q 826 713 907 655 m 501 629 q 450 690 501 656 q 439 706 439 697 q 461 720 439 720 q 534 699 503 720 q 591 644 566 677 q 616 585 616 611 q 585 545 616 549 q 561 532 571 543 q 359 358 451 424 q 112 208 210 254 q 89 203 100 203 q 72 218 72 203 q 85 239 72 230 q 322 415 205 313 q 461 559 402 490 q 501 629 501 608 z "},"ヒ":{"ha":1389,"x_min":323,"x_max":1069,"o":"m 484 488 q 483 292 484 326 q 509 205 483 224 q 608 186 534 186 q 867 200 732 186 q 926 213 879 201 q 981 222 962 222 q 1069 175 1069 222 q 1015 131 1069 138 q 909 119 966 123 q 684 111 806 111 q 467 153 517 111 q 421 226 432 181 q 411 342 412 262 l 412 810 q 406 847 412 835 q 336 888 393 871 q 323 901 323 892 q 342 920 323 911 q 374 928 359 928 q 465 897 413 928 q 529 821 529 859 q 513 789 529 808 q 492 729 493 765 q 484 529 486 610 q 876 690 722 595 q 893 710 893 701 q 856 754 893 726 q 843 770 843 765 q 876 782 843 782 q 962 743 912 782 q 1014 675 1014 703 q 985 643 1014 650 q 941 628 971 640 q 484 488 707 528 z "},"ピ":{"ha":1389,"x_min":296,"x_max":1253,"o":"m 1132 1013 q 1221 972 1185 1013 q 1253 892 1253 938 q 1213 802 1253 838 q 1132 771 1178 771 q 1042 811 1078 771 q 1011 892 1011 846 q 1051 981 1011 945 q 1132 1013 1086 1013 m 1132 970 q 1074 943 1098 970 q 1054 892 1054 921 q 1080 834 1054 858 q 1132 814 1103 814 q 1190 840 1166 814 q 1210 892 1210 863 q 1183 949 1210 926 q 1132 970 1161 970 m 456 464 q 455 269 456 302 q 481 182 455 201 q 580 163 506 163 q 839 176 704 163 q 899 189 850 178 q 953 199 935 199 q 1042 151 1042 199 q 987 107 1042 115 q 882 96 939 100 q 656 87 778 87 q 439 129 490 87 q 393 202 404 157 q 383 318 385 239 l 385 786 q 378 823 385 811 q 308 864 365 846 q 296 878 296 868 q 315 897 296 888 q 346 904 331 904 q 437 873 385 904 q 501 797 501 836 q 485 765 501 785 q 464 705 465 741 q 456 505 458 586 q 848 667 694 572 q 865 686 865 677 q 828 730 865 702 q 815 746 815 741 q 848 758 815 758 q 935 720 885 758 q 986 651 986 679 q 957 619 986 627 q 913 604 943 616 q 456 464 678 505 z "},"フ":{"ha":1389,"x_min":269,"x_max":1147,"o":"m 408 844 q 534 852 441 844 q 960 895 551 854 q 1004 909 987 897 q 1036 925 1023 925 q 1104 884 1055 925 q 1147 822 1147 848 q 1118 791 1147 804 q 1079 754 1091 780 q 775 306 945 476 q 394 47 615 144 q 358 37 372 37 q 340 57 340 37 q 361 79 340 68 q 1002 812 781 294 q 1006 827 1006 822 q 993 836 1006 836 q 939 832 989 836 q 498 777 686 806 q 431 760 448 769 q 394 749 410 749 q 301 819 350 749 q 269 895 269 863 q 283 917 269 917 q 302 903 291 917 q 355 856 332 868 q 408 844 378 844 z "},"プ":{"ha":1389,"x_min":240,"x_max":1344,"o":"m 1223 1128 q 1313 1088 1277 1128 q 1344 1007 1344 1053 q 1304 918 1344 954 q 1223 886 1270 886 q 1134 926 1170 886 q 1103 1007 1103 961 q 1143 1097 1103 1061 q 1223 1128 1177 1128 m 1223 1085 q 1166 1059 1190 1085 q 1145 1007 1145 1036 q 1172 949 1145 973 q 1223 929 1194 929 q 1281 956 1257 929 q 1301 1007 1301 978 q 1275 1065 1301 1041 q 1223 1085 1253 1085 m 379 830 q 505 838 412 830 q 732 860 593 846 q 930 880 903 878 q 975 895 958 882 q 1006 911 994 911 q 1075 869 1026 911 q 1118 808 1118 833 q 1088 777 1118 789 q 1050 740 1062 766 q 746 292 916 462 q 365 33 586 131 q 329 24 343 24 q 311 43 311 24 q 332 65 311 55 q 973 798 751 280 q 977 813 977 808 q 964 822 977 822 q 909 818 960 822 q 469 762 657 792 q 402 745 419 755 q 365 734 380 734 q 272 804 321 734 q 240 880 240 848 q 254 903 240 903 q 273 888 261 903 q 326 842 303 854 q 379 830 349 830 z "},"ヘ":{"ha":1389,"x_min":129,"x_max":1257,"o":"m 215 538 q 258 556 232 538 q 364 638 272 566 q 467 717 425 686 q 526 741 498 741 q 611 710 558 741 q 1186 401 913 530 q 1234 375 1216 389 q 1257 334 1257 357 q 1242 296 1257 311 q 1212 283 1229 283 q 1137 306 1177 283 q 619 632 913 435 q 529 677 551 677 q 475 646 509 677 q 344 510 422 597 q 308 467 321 488 q 262 441 292 441 q 166 492 222 441 q 129 557 129 524 q 140 574 129 574 q 159 564 144 574 q 215 538 197 538 z "},"ベ":{"ha":1389,"x_min":127,"x_max":1255,"o":"m 963 954 q 985 950 971 954 q 1084 904 1037 937 q 1147 815 1147 861 q 1135 787 1147 798 q 1115 778 1126 778 q 1069 815 1092 778 q 955 926 1032 880 q 949 940 949 930 q 963 954 949 954 m 847 868 q 861 867 857 868 q 964 811 924 844 q 1023 721 1023 763 q 989 681 1023 681 q 943 727 966 681 q 840 839 911 787 q 831 852 831 845 q 847 868 831 868 m 214 496 q 256 515 231 496 q 363 597 271 525 q 465 675 424 645 q 525 699 496 699 q 610 669 557 699 q 1185 360 912 488 q 1233 334 1215 347 q 1255 292 1255 315 q 1240 254 1255 269 q 1211 242 1227 242 q 1136 264 1175 242 q 618 591 912 393 q 528 635 549 635 q 473 605 507 635 q 342 469 420 555 q 307 425 320 446 q 261 399 290 399 q 165 450 221 399 q 127 515 127 483 q 138 532 127 532 q 158 523 142 532 q 214 496 196 496 z "},"ペ":{"ha":1389,"x_min":127,"x_max":1255,"o":"m 1001 928 q 1090 888 1055 928 q 1122 807 1122 853 q 1082 718 1122 753 q 1001 686 1047 686 q 911 726 947 686 q 880 807 880 761 q 920 897 880 861 q 1001 928 955 928 m 1001 885 q 943 859 967 885 q 923 807 923 836 q 949 749 923 773 q 1001 729 972 729 q 1059 755 1035 729 q 1079 807 1079 778 q 1053 865 1079 841 q 1001 885 1030 885 m 214 503 q 256 522 231 503 q 363 604 271 532 q 465 682 424 652 q 525 706 496 706 q 610 675 556 706 q 1185 367 911 496 q 1233 340 1215 354 q 1255 299 1255 321 q 1240 261 1255 276 q 1211 249 1227 249 q 1136 271 1175 249 q 618 597 911 400 q 528 642 549 642 q 473 612 507 642 q 342 475 420 563 q 307 432 320 452 q 261 406 290 406 q 165 457 221 406 q 127 522 127 490 q 138 539 127 539 q 158 530 142 539 q 214 503 196 503 z "},"ホ":{"ha":1389,"x_min":167,"x_max":1221,"o":"m 922 485 q 907 505 907 496 q 926 522 907 522 q 954 514 931 522 q 1115 416 1054 472 q 1178 301 1178 358 q 1132 244 1178 244 q 1099 256 1112 244 q 1074 298 1087 268 q 922 485 1027 408 m 735 720 q 990 745 903 735 q 1043 758 1025 748 q 1083 774 1069 774 q 1176 753 1132 774 q 1221 703 1221 733 q 1175 669 1221 669 q 1145 671 1164 669 q 1112 675 1123 674 q 1049 677 1087 677 q 1015 676 1032 677 q 735 664 917 676 q 736 536 736 626 q 736 414 736 448 q 739 288 736 385 q 743 160 743 207 q 720 77 743 116 q 663 26 690 26 q 631 60 640 26 q 599 102 625 88 q 491 150 553 129 q 471 172 471 157 q 487 186 471 186 q 491 186 489 186 q 637 170 589 170 q 659 175 654 170 q 663 196 663 180 l 664 657 q 375 617 503 640 q 323 602 341 611 q 288 588 302 588 q 201 644 247 588 q 167 711 167 687 q 173 727 167 720 q 184 732 178 732 q 208 714 191 732 q 293 675 252 675 q 371 682 312 675 q 663 710 634 707 l 661 903 q 644 953 661 943 q 581 960 631 960 q 566 974 566 960 q 581 994 566 985 q 659 1015 611 1015 q 738 989 691 1015 q 778 945 778 965 q 758 911 778 928 q 739 846 741 897 q 735 720 736 781 m 403 496 q 421 513 408 513 q 435 496 435 513 q 378 297 435 386 q 269 205 319 205 q 234 220 247 205 q 222 250 222 232 q 274 317 222 285 q 354 395 318 345 q 403 496 388 439 z "},"ポ":{"ha":1389,"x_min":161,"x_max":1274,"o":"m 1153 1093 q 1242 1053 1206 1093 q 1274 972 1274 1019 q 1234 883 1274 919 q 1153 852 1199 852 q 1063 892 1099 852 q 1032 972 1032 926 q 1072 1062 1032 1026 q 1153 1093 1107 1093 m 1153 1050 q 1095 1024 1119 1050 q 1075 972 1075 1002 q 1101 915 1075 939 q 1153 895 1124 895 q 1211 921 1187 895 q 1231 972 1231 943 q 1204 1030 1231 1006 q 1153 1050 1182 1050 m 917 465 q 902 486 902 476 q 920 503 902 503 q 948 494 926 503 q 1109 396 1048 452 q 1173 282 1173 339 q 1126 225 1173 225 q 1094 237 1106 225 q 1068 279 1082 249 q 917 465 1022 388 m 730 701 q 985 726 903 716 q 1038 739 1019 729 q 1078 755 1063 755 q 1171 734 1126 755 q 1215 684 1215 713 q 1169 649 1215 649 q 1140 652 1159 649 q 1107 656 1118 655 q 1044 658 1082 658 q 1010 657 1027 658 q 730 645 911 657 q 730 517 730 606 q 731 395 730 429 q 735 258 731 336 q 738 140 738 158 q 714 57 738 96 q 657 7 685 7 q 625 40 634 7 q 593 82 618 68 q 486 130 547 110 q 466 153 466 137 q 481 167 466 167 q 486 167 484 167 q 632 150 583 150 q 653 155 648 150 q 657 176 657 160 l 659 637 q 370 597 498 621 q 318 583 336 592 q 282 568 296 568 q 196 624 241 568 q 161 692 161 667 q 168 707 161 701 q 178 713 173 713 q 203 694 185 713 q 288 656 247 656 q 366 663 307 656 q 657 690 618 687 l 656 884 q 639 933 656 924 q 575 941 625 941 q 560 955 560 941 q 575 975 560 966 q 653 996 606 996 q 732 970 686 996 q 772 926 772 946 q 753 892 772 909 q 734 827 736 878 q 730 701 731 762 m 397 476 q 416 493 403 493 q 429 476 429 493 q 372 277 429 366 q 263 186 314 186 q 229 200 241 186 q 217 231 217 212 q 269 297 217 266 q 349 375 313 325 q 397 476 382 419 z "},"マ":{"ha":1389,"x_min":121,"x_max":1227,"o":"m 722 382 q 1058 700 949 576 q 1065 713 1065 708 q 1052 721 1065 721 q 1048 721 1051 721 q 378 643 751 696 q 302 621 319 634 q 262 607 283 607 q 178 659 225 607 q 121 753 121 722 q 127 770 121 762 q 136 775 132 775 q 155 764 142 775 q 200 731 184 741 q 262 715 224 715 q 353 720 294 715 q 1015 781 760 755 q 1062 794 1052 785 q 1100 810 1078 810 q 1176 760 1124 810 q 1227 689 1227 711 q 1187 657 1227 657 q 1129 635 1156 657 q 761 347 948 484 q 865 197 865 246 q 851 159 865 174 q 814 144 837 144 q 762 184 785 144 q 654 335 717 267 q 479 482 568 426 q 467 503 467 490 q 481 518 467 518 q 505 513 489 518 q 722 382 623 465 z "},"ミ":{"ha":1389,"x_min":444,"x_max":960,"o":"m 564 981 q 543 1002 543 988 q 573 1020 543 1020 q 734 995 647 1020 q 861 943 809 974 q 925 860 925 905 q 912 823 925 837 q 886 812 901 812 q 825 844 858 812 q 564 981 728 928 m 465 644 q 444 664 444 652 q 473 684 444 684 q 617 657 535 684 q 737 604 687 635 q 791 531 791 570 q 754 482 791 482 q 692 511 724 482 q 465 644 597 597 m 475 248 q 455 269 455 253 q 477 288 455 288 q 764 220 592 288 q 960 60 960 142 q 947 23 960 37 q 918 9 936 9 q 843 50 887 9 q 475 248 696 180 z "},"ム":{"ha":1389,"x_min":199,"x_max":1192,"o":"m 1027 290 q 878 479 954 408 q 865 500 865 492 q 882 515 865 515 q 905 507 893 515 q 1143 281 1061 405 q 1192 149 1192 207 q 1175 111 1192 125 q 1144 100 1162 100 q 1096 137 1108 100 q 1050 244 1073 203 q 376 129 740 184 q 322 111 333 121 q 292 97 309 97 q 229 153 262 97 q 199 237 199 200 q 208 263 199 251 q 220 273 214 273 q 235 258 227 273 q 307 212 262 212 q 371 216 340 212 q 641 822 519 506 q 658 880 658 864 q 593 950 658 918 q 578 965 578 958 q 621 985 578 985 q 725 951 670 985 q 791 873 791 911 q 765 836 791 848 q 718 771 743 824 q 432 220 564 449 q 1027 290 696 241 z "},"メ":{"ha":1389,"x_min":183,"x_max":1038,"o":"m 765 616 q 886 864 841 756 q 904 930 904 906 q 824 1000 904 966 q 807 1014 807 1006 q 850 1038 807 1038 q 968 996 905 1038 q 1038 916 1038 949 q 1010 880 1038 893 q 969 827 993 871 q 830 570 903 697 q 941 464 890 523 q 993 360 993 404 q 978 324 993 338 q 949 314 966 314 q 903 350 925 314 q 786 500 843 445 q 518 198 676 336 q 229 0 378 75 q 201 -7 215 -7 q 183 12 183 -7 q 195 29 183 22 q 725 553 515 219 q 515 692 633 626 q 494 715 494 704 q 511 729 494 729 q 541 722 519 729 q 765 616 657 679 z "},"モ":{"ha":1389,"x_min":117,"x_max":1230,"o":"m 675 541 q 993 579 867 566 q 1065 594 1049 585 q 1107 611 1093 611 q 1202 585 1154 611 q 1230 545 1230 570 q 1181 510 1230 510 l 1050 511 q 675 484 884 511 l 673 309 q 692 213 673 231 q 831 191 716 191 q 970 201 907 191 q 996 209 975 202 q 1019 214 1010 214 q 1097 194 1074 214 q 1116 161 1116 181 q 1077 123 1116 133 q 897 110 1015 110 q 657 151 717 110 q 614 203 625 174 q 602 293 602 233 q 602 472 602 389 q 367 429 484 454 q 285 401 305 415 q 240 386 264 386 q 154 437 205 386 q 117 508 117 475 q 134 526 117 526 q 149 517 139 526 q 227 477 185 477 q 304 486 254 477 q 602 530 501 517 q 603 694 603 578 q 587 755 603 734 q 566 772 578 768 q 452 757 480 757 q 340 791 383 757 q 292 854 292 831 q 307 872 292 872 q 326 861 315 872 q 437 822 367 822 q 592 842 481 822 q 800 886 705 861 q 854 908 835 895 q 911 929 886 929 q 967 921 939 929 q 1004 883 1004 911 q 957 842 1004 848 q 785 814 899 833 q 625 786 660 792 q 701 728 701 756 q 690 700 701 726 q 680 653 682 682 q 677 595 680 641 q 675 541 675 562 z "},"ャ":{"ha":1389,"x_min":254,"x_max":1126,"o":"m 672 543 q 958 621 845 592 q 993 643 977 625 q 1022 660 1008 660 q 1086 624 1046 660 q 1126 567 1126 588 q 1097 543 1126 543 q 1056 528 1071 543 q 835 328 941 410 q 818 321 825 321 q 804 334 804 321 q 814 351 804 342 q 1003 576 929 467 q 996 583 1003 583 q 685 492 890 557 q 709 389 686 489 q 792 71 767 159 q 802 16 802 27 q 792 -8 802 3 q 771 -18 783 -18 q 724 19 730 -18 q 648 375 660 323 q 625 474 644 391 q 436 410 494 432 q 392 383 401 397 q 367 372 383 372 q 297 410 336 372 q 254 481 254 450 q 267 510 254 510 q 283 497 275 510 q 340 460 314 460 q 416 471 372 460 q 611 528 522 501 q 574 681 591 625 q 550 735 562 726 q 490 747 536 747 q 475 755 475 747 q 498 781 475 766 q 541 795 521 795 q 627 764 569 795 q 661 728 661 746 q 653 706 661 717 q 644 685 644 695 q 648 656 644 677 q 672 543 656 611 z "},"ュ":{"ha":1389,"x_min":239,"x_max":1139,"o":"m 825 211 q 969 218 930 216 q 1015 233 991 219 q 1040 239 1026 239 q 1097 218 1063 239 q 1139 165 1139 193 q 1111 142 1139 142 q 1069 146 1096 142 q 932 154 977 154 q 743 149 841 154 q 429 117 621 142 q 378 101 395 112 q 347 93 361 93 q 283 129 319 93 q 239 207 239 174 q 248 229 239 229 q 269 220 262 229 q 330 175 306 175 q 399 179 368 175 q 586 195 465 185 q 758 208 733 206 q 818 524 791 353 q 590 498 735 521 q 512 483 532 489 q 486 475 487 475 q 426 511 462 475 q 391 589 391 546 q 405 606 391 606 q 420 593 411 606 q 487 553 448 553 q 644 564 516 553 q 721 571 669 566 q 777 576 760 575 q 814 590 801 579 q 843 607 833 607 q 900 581 857 607 q 936 538 936 557 q 909 507 936 524 q 888 472 895 497 q 825 211 840 271 z "},"ョ":{"ha":1389,"x_min":358,"x_max":1034,"o":"m 907 401 q 919 562 916 505 q 903 578 919 578 q 533 546 781 574 q 484 535 496 543 q 463 527 472 527 q 399 567 440 527 q 365 633 365 602 q 374 654 365 654 q 390 646 381 654 q 463 605 429 605 q 493 607 471 605 q 528 609 517 608 q 883 631 683 622 q 911 644 897 631 q 940 659 930 659 q 997 627 957 659 q 1034 579 1034 597 q 1016 554 1034 568 q 996 525 997 539 l 949 151 q 1000 106 1000 138 q 972 79 1000 79 q 919 82 971 79 q 861 83 901 83 q 534 57 705 83 q 479 43 489 51 q 465 37 472 37 q 399 74 442 37 q 358 144 358 111 q 368 161 358 161 q 382 155 374 161 q 456 115 420 115 q 518 117 494 115 q 882 144 710 137 q 901 346 893 249 q 578 319 713 334 q 520 306 533 312 q 513 301 517 304 q 496 294 503 294 q 431 331 473 294 q 393 396 393 368 q 402 414 393 414 q 419 405 408 414 q 484 373 455 373 q 548 377 498 373 q 907 401 725 391 z "},"ラ":{"ha":1389,"x_min":286,"x_max":1133,"o":"m 536 965 q 624 969 578 965 q 885 1018 759 984 q 956 1034 933 1034 q 1018 986 1018 1034 q 993 951 1018 962 q 903 935 975 944 q 625 903 725 911 q 535 895 538 895 q 441 935 488 895 q 395 1004 395 975 q 406 1024 395 1024 q 425 1014 414 1024 q 482 976 461 985 q 536 965 506 965 m 412 703 q 521 711 444 703 q 946 760 591 719 q 990 781 973 764 q 1018 798 1006 798 q 1088 758 1039 798 q 1133 699 1133 722 q 1108 671 1133 680 q 1067 631 1083 664 q 767 214 958 403 q 418 -35 600 49 q 392 -45 395 -45 q 372 -25 372 -45 q 383 -9 372 -16 q 755 314 591 126 q 989 676 907 489 q 996 697 996 692 q 989 703 996 703 q 952 701 968 703 q 507 642 742 684 q 444 626 459 633 q 408 616 427 616 q 363 634 390 616 q 326 667 342 648 q 286 743 286 717 q 298 764 286 764 q 317 754 307 764 q 412 703 373 703 z "},"リ":{"ha":1389,"x_min":359,"x_max":964,"o":"m 487 845 q 475 921 487 904 q 420 962 458 945 q 402 977 402 968 q 416 996 402 987 q 435 1002 427 1002 q 533 964 475 1002 q 591 901 591 926 q 578 873 591 886 q 564 811 566 861 q 559 424 559 686 q 528 367 559 367 q 486 400 505 367 q 469 468 469 431 q 475 505 469 488 q 481 546 480 524 q 487 845 487 697 m 851 933 q 833 1002 851 982 q 764 1035 817 1020 q 745 1053 745 1039 q 764 1072 745 1063 q 797 1079 779 1079 q 896 1051 833 1079 q 964 987 964 1021 q 951 960 964 974 q 936 890 937 946 q 922 526 930 602 q 825 228 903 340 q 406 -50 690 35 q 379 -54 384 -54 q 359 -37 359 -54 q 373 -20 359 -24 q 620 117 504 24 q 771 286 722 198 q 844 562 830 390 q 851 816 851 661 l 851 933 z "},"ル":{"ha":1389,"x_min":113,"x_max":1307,"o":"m 682 734 q 674 822 682 800 q 606 871 664 847 q 593 883 593 876 q 607 901 593 892 q 635 908 619 908 q 734 871 671 908 q 787 811 787 840 q 772 779 787 794 q 760 729 760 764 q 751 295 751 459 q 758 284 751 284 q 777 290 764 284 q 1271 602 1025 397 q 1289 611 1283 611 q 1307 594 1307 611 q 1300 579 1307 586 q 815 205 1142 395 q 786 176 799 196 q 758 158 776 158 q 701 198 738 158 q 668 258 668 237 q 675 280 668 262 q 681 318 681 297 q 682 734 682 454 m 436 672 q 419 714 436 699 q 372 743 395 734 q 354 760 354 751 q 364 774 354 768 q 386 781 374 781 q 497 737 433 781 q 551 667 551 701 q 534 636 551 651 q 510 586 519 624 q 375 313 470 448 q 151 97 282 184 q 130 89 138 89 q 113 100 113 89 q 122 119 113 111 q 313 345 233 215 q 422 593 394 479 q 436 672 436 648 z "},"レ":{"ha":1389,"x_min":275,"x_max":1228,"o":"m 371 774 q 353 846 371 828 q 291 888 328 871 q 275 904 275 895 q 307 924 275 924 q 374 909 332 924 q 432 882 409 896 q 485 825 485 850 q 471 789 485 807 q 451 703 452 766 q 445 303 445 500 q 446 214 445 253 q 452 200 446 200 q 471 204 455 200 q 853 380 671 275 q 1188 616 1031 484 q 1210 627 1201 627 q 1228 607 1228 627 q 1219 591 1228 603 q 885 319 1093 456 q 534 138 742 225 q 466 94 483 116 q 435 74 452 74 q 380 127 414 74 q 353 185 353 165 q 363 212 353 195 q 370 264 370 225 q 371 774 371 410 z "},"ロ":{"ha":1389,"x_min":275,"x_max":1092,"o":"m 435 775 q 889 807 690 795 q 946 823 927 808 q 983 844 973 844 q 1046 818 1012 844 q 1092 765 1092 782 q 1071 734 1092 749 q 1042 686 1050 721 q 960 330 1021 590 q 1019 313 996 325 q 1035 285 1035 303 q 1015 256 1035 261 q 961 253 1006 253 q 458 233 673 253 q 458 200 458 208 q 425 146 458 146 q 379 210 382 146 q 350 699 363 551 q 334 762 347 741 q 289 806 321 785 q 275 822 275 815 q 307 839 275 839 q 367 818 326 839 q 435 775 404 800 m 890 318 q 949 718 931 568 q 951 745 951 741 q 942 751 951 751 l 917 751 q 435 718 749 747 q 454 292 441 547 q 890 318 599 301 z "},"ワ":{"ha":1389,"x_min":261,"x_max":1121,"o":"m 419 937 q 690 958 512 944 l 917 977 q 971 999 952 980 q 999 1014 986 1014 q 1065 983 1023 1014 q 1121 921 1121 944 q 1100 892 1121 904 q 1061 839 1074 877 q 863 385 982 575 q 517 -3 705 128 q 490 -14 498 -14 q 472 0 472 -14 q 486 22 472 11 q 810 448 671 190 q 979 895 920 653 q 981 909 981 901 q 971 916 981 916 l 951 916 q 428 877 819 913 q 437 663 430 821 q 441 554 441 569 q 401 498 441 498 q 371 512 382 498 q 355 559 355 530 q 343 859 355 719 q 324 925 340 901 q 277 970 309 949 q 261 986 261 980 q 270 997 261 991 q 285 1002 277 1002 q 419 937 336 1002 z "},"ン":{"ha":1389,"x_min":302,"x_max":1204,"o":"m 428 205 q 490 232 446 205 q 852 511 663 337 q 1164 850 1023 667 q 1183 863 1174 863 q 1204 847 1204 863 q 1196 823 1204 837 q 895 452 1083 637 q 540 150 760 315 q 505 113 512 130 q 469 89 494 89 q 379 142 434 89 q 322 233 322 199 q 334 261 322 261 q 353 250 342 261 q 428 205 404 205 m 315 846 q 302 864 302 854 q 318 880 302 880 q 341 877 330 880 q 494 804 421 861 q 565 689 565 749 q 521 636 565 636 q 468 677 490 635 q 315 846 409 788 z "},"ヴ":{"ha":1389,"x_min":241,"x_max":1331,"o":"m 1147 1157 q 1169 1153 1155 1157 q 1268 1107 1221 1139 q 1331 1018 1331 1063 q 1319 989 1331 1000 q 1299 981 1310 981 q 1253 1018 1276 981 q 1139 1129 1216 1082 q 1133 1143 1133 1133 q 1147 1157 1133 1157 m 1031 1071 q 1044 1069 1040 1071 q 1147 1014 1107 1047 q 1206 924 1206 966 q 1172 884 1206 884 q 1126 930 1150 884 q 1023 1042 1095 989 q 1015 1055 1015 1048 q 1031 1071 1015 1071 m 403 725 q 415 519 406 651 q 419 431 419 457 q 390 386 419 386 q 349 411 366 386 q 330 455 330 434 q 333 479 330 468 q 334 521 334 486 q 326 716 334 601 q 262 815 317 779 q 241 838 241 829 q 277 851 241 851 q 397 786 316 851 q 463 791 436 789 q 550 800 491 794 q 636 807 610 805 l 635 968 q 572 1030 635 1018 q 547 1047 547 1036 q 566 1069 547 1059 q 600 1078 583 1078 q 688 1051 633 1078 q 745 994 745 1023 q 725 960 745 974 q 713 929 715 954 l 712 812 q 835 820 718 813 q 929 826 891 823 q 961 840 949 828 q 990 852 973 852 q 1057 819 1006 852 q 1111 758 1111 784 q 1086 729 1111 736 q 1055 701 1063 721 q 865 325 970 480 q 478 -39 700 85 q 448 -52 453 -52 q 431 -32 431 -52 q 446 -12 431 -22 q 836 426 682 155 q 973 749 932 595 q 975 758 975 755 q 956 766 975 766 q 718 755 891 766 q 403 725 570 746 z "},"・":{"ha":1389,"x_min":578,"x_max":810,"o":"m 693 645 q 779 607 745 645 q 810 529 810 574 q 771 443 810 477 q 693 413 738 413 q 608 451 642 413 q 578 529 578 484 q 616 615 578 581 q 693 645 648 645 z "},"ー":{"ha":1389,"x_min":168,"x_max":1219,"o":"m 1219 511 q 1172 479 1219 479 l 981 485 q 407 458 731 485 q 332 440 351 454 q 288 429 317 429 q 201 499 249 429 q 168 578 168 547 q 179 600 168 600 q 204 582 191 600 q 296 529 247 529 q 488 537 366 529 q 986 559 796 557 q 1058 574 1034 559 q 1100 585 1078 585 q 1153 571 1119 585 q 1219 511 1219 542 z "},"中":{"ha":1389,"x_min":178,"x_max":1241,"o":"m 728 408 q 731 50 728 195 q 732 -27 731 37 q 733 -58 733 -49 q 673 -100 733 -100 q 632 -66 632 -100 q 633 -5 632 -60 q 639 408 638 161 l 272 408 l 272 349 q 216 311 272 311 q 179 343 179 311 l 184 646 q 178 893 184 824 q 284 838 254 857 l 639 838 q 631 1149 637 1075 q 756 1131 732 1138 q 777 1111 777 1125 q 728 1074 777 1095 l 728 838 l 1103 838 q 1156 886 1145 886 q 1217 844 1168 886 q 1241 811 1241 824 q 1201 772 1241 798 l 1201 659 l 1205 362 q 1149 325 1205 325 q 1112 357 1112 325 l 1112 408 l 728 408 m 728 443 l 1112 443 l 1112 803 l 728 803 l 728 443 m 639 443 l 639 803 l 272 803 l 272 443 l 639 443 z "},"入":{"ha":1389,"x_min":70,"x_max":1324,"o":"m 83 -79 q 81 -79 81 -79 q 70 -65 70 -79 q 72 -60 70 -62 q 512 435 358 128 q 671 1011 652 719 l 488 1011 q 378 1003 422 1011 l 363 1055 q 486 1046 411 1048 l 651 1046 q 701 1093 694 1093 q 753 1056 711 1093 q 780 1022 780 1031 q 717 979 780 1009 q 952 322 748 589 q 1319 25 1104 123 q 1324 19 1324 24 q 1316 10 1324 12 q 1252 -51 1272 -2 q 1233 -68 1244 -68 q 1188 -45 1221 -68 q 891 270 1005 79 q 724 722 770 473 q 530 298 663 500 q 83 -79 391 87 z "},"南":{"ha":1389,"x_min":74,"x_max":1321,"o":"m 724 457 l 724 296 l 911 296 q 975 358 962 358 q 1045 309 987 358 q 1073 273 1073 286 q 1055 261 1073 261 l 724 261 l 724 229 l 730 1 q 674 -39 730 -39 q 635 -5 635 -39 l 641 216 l 641 261 l 426 261 q 331 254 380 261 l 319 304 q 422 296 367 296 l 641 296 l 641 457 l 466 457 q 372 449 431 457 l 359 501 q 462 492 406 492 l 731 492 q 805 640 770 556 q 827 713 821 677 q 941 657 941 675 q 892 635 941 640 q 767 492 827 547 l 881 492 q 944 551 933 551 q 1012 505 957 551 q 1038 471 1038 484 q 1020 457 1038 457 l 724 457 m 637 770 l 637 932 l 188 932 q 87 924 144 932 l 74 975 q 185 966 138 966 l 637 966 l 637 999 q 631 1154 637 1088 q 751 1134 724 1143 q 772 1116 772 1127 q 724 1080 772 1099 l 724 966 l 1128 966 q 1203 1040 1192 1040 q 1286 985 1216 1040 q 1321 944 1321 958 q 1302 932 1321 932 l 724 932 l 724 770 l 1099 770 q 1149 817 1140 817 q 1208 777 1159 817 q 1231 745 1231 758 q 1195 707 1231 730 l 1195 485 l 1200 20 q 1154 -68 1200 -37 q 1078 -90 1122 -90 q 1061 -72 1065 -90 q 1027 -26 1058 -43 q 921 7 998 -10 q 916 16 916 8 q 922 25 916 25 q 1082 18 1006 18 q 1109 43 1109 18 l 1109 735 l 278 735 l 278 338 l 279 -62 q 225 -102 279 -102 q 185 -68 185 -102 l 192 482 q 185 821 192 766 q 292 770 241 798 l 637 770 m 450 696 q 449 699 449 698 q 457 707 449 707 q 460 706 458 707 q 613 561 613 644 q 570 511 613 511 q 543 523 552 511 q 528 561 535 533 q 450 696 512 625 z "},"危":{"ha":1389,"x_min":74,"x_max":1295,"o":"m 258 769 q 87 663 182 710 q 85 663 86 663 q 74 677 74 663 q 76 681 74 680 q 406 1043 286 824 q 461 1171 444 1114 q 585 1109 585 1130 q 530 1083 585 1090 l 493 1021 l 793 1021 q 844 1065 831 1065 q 907 1018 858 1065 q 934 979 934 991 q 876 951 934 964 q 728 791 798 854 l 1094 791 q 1172 868 1162 868 q 1252 812 1181 868 q 1285 770 1285 786 q 1265 757 1285 757 l 347 757 l 347 675 q 290 231 347 399 q 96 -68 233 62 q 92 -69 94 -69 q 78 -58 78 -69 q 79 -55 78 -56 q 222 254 184 94 q 260 661 260 413 q 258 769 260 743 m 319 818 q 361 791 346 802 l 686 791 q 791 986 751 895 l 469 986 q 319 818 399 890 m 1257 233 q 1253 102 1253 173 q 1276 64 1253 73 q 1295 31 1295 58 q 1225 -31 1295 -10 q 863 -54 1147 -54 q 561 -22 625 -54 q 503 93 503 6 l 507 392 q 498 659 507 583 q 597 608 541 640 l 962 608 q 1013 654 1003 654 q 1067 616 1023 654 q 1092 583 1092 593 q 1053 546 1092 571 q 1024 318 1043 393 q 977 225 1008 252 q 896 197 947 197 q 880 213 881 197 q 848 256 875 241 q 747 289 820 271 q 742 298 742 291 q 749 307 742 309 q 892 294 854 294 q 928 309 916 294 q 945 351 938 321 q 970 574 964 429 l 589 574 l 589 119 q 604 57 589 74 q 674 31 621 37 q 840 25 719 25 q 1143 42 1093 25 q 1196 98 1177 54 q 1239 235 1218 147 q 1246 240 1240 240 q 1257 233 1257 240 z "},"地":{"ha":1389,"x_min":63,"x_max":1328,"o":"m 943 745 l 1133 814 q 1177 865 1164 865 q 1240 825 1191 865 q 1260 798 1260 810 q 1226 762 1260 783 q 1200 376 1222 486 q 1160 279 1185 304 q 1084 245 1126 245 q 1066 249 1070 245 q 1061 262 1063 252 q 1038 307 1057 292 q 970 338 1021 320 q 966 347 966 340 q 973 357 966 358 q 1082 349 1041 349 q 1121 401 1112 349 q 1145 782 1140 509 l 943 708 l 947 201 q 892 160 947 160 q 856 193 856 160 l 861 677 l 680 611 l 680 100 q 691 51 680 65 q 911 18 719 18 q 1127 25 1069 18 q 1190 43 1173 30 q 1270 219 1234 79 q 1277 224 1270 224 q 1288 216 1288 224 q 1282 87 1282 132 q 1304 53 1282 60 q 1328 18 1328 44 q 1268 -39 1328 -19 q 905 -64 1187 -64 q 640 -28 697 -64 q 595 85 595 0 l 597 581 l 528 555 q 441 517 475 536 l 410 559 q 514 587 471 572 l 597 618 q 589 996 597 928 q 726 958 726 981 q 680 922 726 942 l 680 647 l 861 714 l 861 764 q 854 1146 861 1086 q 968 1126 944 1134 q 988 1107 988 1119 q 943 1072 988 1093 l 943 745 m 254 236 l 254 704 l 157 704 q 77 696 117 704 l 63 749 q 156 739 115 739 l 254 739 l 254 850 q 248 1125 254 1069 q 363 1106 336 1116 q 383 1087 383 1099 q 336 1051 383 1072 l 336 739 l 399 739 q 455 800 444 800 q 519 752 471 800 q 543 716 543 729 q 526 704 543 704 l 336 704 l 336 264 q 516 336 427 296 q 517 336 517 336 q 526 324 526 336 q 523 317 526 319 q 160 121 351 197 q 137 66 155 66 q 68 191 113 66 q 163 210 119 198 q 254 236 214 224 z "},"央":{"ha":1389,"x_min":52,"x_max":1341,"o":"m 686 424 q 587 210 653 298 q 371 18 500 90 q 68 -94 252 -50 q 57 -81 57 -96 q 60 -75 57 -76 q 351 68 241 -11 q 505 224 438 132 q 602 435 572 317 l 163 435 q 65 427 112 435 l 52 479 q 163 469 114 469 l 248 469 l 248 724 q 242 930 248 859 q 342 879 289 909 l 640 879 l 640 900 q 631 1144 640 1083 q 751 1123 726 1132 q 770 1104 770 1116 q 728 1066 770 1086 l 726 879 l 1025 879 q 1076 924 1066 924 q 1135 886 1088 924 q 1157 855 1157 867 q 1120 818 1157 841 l 1120 469 l 1177 469 q 1243 540 1233 540 q 1313 486 1254 540 q 1341 448 1341 460 q 1322 435 1341 435 l 715 435 q 956 154 800 269 q 1325 1 1103 43 q 1331 -5 1331 1 q 1322 -15 1331 -14 q 1285 -33 1297 -21 q 1263 -72 1273 -45 q 1240 -93 1255 -93 q 1189 -76 1232 -93 q 910 100 1028 -12 q 686 424 764 237 m 696 469 l 1034 469 l 1034 844 l 726 844 l 726 842 q 696 469 724 608 m 608 469 q 629 616 622 527 q 639 844 639 706 l 332 844 l 332 469 l 608 469 z "},"山":{"ha":1389,"x_min":168,"x_max":1265,"o":"m 1128 49 l 264 49 l 264 -32 q 207 -71 264 -71 q 170 -37 170 -71 l 176 494 q 168 852 176 781 q 290 831 262 841 q 313 811 313 825 q 264 772 313 793 l 264 83 l 642 83 l 642 803 q 633 1107 642 1042 q 760 1086 731 1097 q 782 1067 782 1080 q 730 1027 782 1048 l 730 83 l 1128 83 l 1128 568 q 1121 850 1128 795 q 1243 831 1217 840 q 1265 811 1265 824 q 1217 772 1265 792 l 1217 507 l 1223 -32 q 1166 -71 1223 -71 q 1135 -62 1143 -71 q 1128 -36 1128 -55 l 1128 49 z "},"島":{"ha":1389,"x_min":168,"x_max":1284,"o":"m 372 371 l 1122 371 q 1175 418 1165 418 q 1232 378 1186 418 q 1255 346 1255 357 q 1214 310 1255 336 q 1157 4 1193 94 q 1085 -82 1129 -58 q 999 -103 1047 -103 q 984 -89 985 -103 q 958 -48 981 -62 q 857 -13 932 -33 q 852 -3 852 -11 q 859 5 852 7 q 1020 -9 987 -9 q 1088 60 1062 -9 q 1133 336 1116 134 l 372 336 l 372 326 q 319 289 372 289 q 283 319 283 289 l 290 677 q 282 1053 290 945 q 383 1003 338 1031 l 531 1003 q 563 1099 551 1050 q 574 1160 570 1133 q 701 1114 701 1131 q 648 1086 701 1095 q 572 1003 616 1046 l 901 1003 q 951 1049 942 1049 q 1008 1010 961 1049 q 1031 978 1031 989 q 995 942 1031 963 l 995 850 l 999 618 q 945 582 999 582 q 918 589 924 582 q 911 611 911 595 l 911 642 l 372 642 l 372 521 l 1105 521 q 1177 590 1165 590 q 1252 538 1185 590 q 1284 500 1284 512 q 1264 486 1284 486 l 372 486 l 372 371 m 911 676 l 911 808 l 372 808 l 372 676 l 911 676 m 911 843 l 911 968 l 372 968 l 372 843 l 911 843 m 254 96 l 500 96 l 500 203 q 493 307 500 256 q 605 289 578 298 q 623 272 623 283 q 582 240 623 260 l 582 96 l 825 96 l 825 153 q 819 260 825 216 q 928 241 906 249 q 945 225 945 236 q 905 194 945 212 l 905 159 l 907 56 q 858 18 907 18 q 825 44 825 18 l 825 61 l 254 61 l 254 5 q 207 -28 254 -28 q 172 0 172 -28 l 175 113 q 168 257 175 207 q 277 239 254 248 q 296 222 296 233 q 254 191 296 208 l 254 96 z "},"嵐":{"ha":1389,"x_min":43,"x_max":1348,"o":"m 631 229 l 467 229 l 467 211 q 420 175 467 175 q 389 203 389 175 l 393 342 q 388 500 393 442 q 475 454 433 482 l 631 454 l 631 575 q 370 563 516 563 q 361 574 361 563 q 366 583 361 581 q 775 653 610 606 q 889 699 854 675 q 962 614 962 631 q 945 604 962 604 q 899 617 928 604 q 706 583 794 595 l 706 454 l 870 454 q 916 494 906 494 q 964 463 926 494 q 985 432 985 445 q 952 400 985 420 l 952 361 l 955 231 q 909 199 955 199 q 878 222 878 199 l 878 229 l 706 229 l 706 53 q 917 74 808 61 q 846 160 889 118 q 844 165 844 162 q 852 174 844 174 q 855 173 854 174 q 998 75 947 132 q 1042 -20 1042 26 q 1029 -62 1042 -45 q 1004 -77 1019 -77 q 960 -25 975 -77 q 932 47 951 9 q 356 -40 675 -5 q 326 -79 340 -79 q 310 -58 317 -79 q 288 41 303 -36 q 364 37 320 37 q 631 47 512 39 l 631 229 m 631 264 l 631 420 l 467 420 l 467 264 l 631 264 m 878 264 l 878 420 l 706 420 l 706 264 l 878 264 m 1057 901 l 294 901 l 294 879 q 246 846 294 846 q 210 873 210 846 l 213 991 q 208 1111 213 1063 q 318 1095 292 1102 q 339 1078 339 1088 q 294 1042 339 1061 l 294 936 l 623 936 l 623 1053 q 616 1157 623 1109 q 751 1120 751 1143 q 705 1086 751 1104 l 705 936 l 1057 936 l 1057 1011 q 1052 1112 1057 1066 q 1162 1096 1137 1104 q 1181 1079 1181 1090 q 1139 1044 1181 1062 l 1139 1005 l 1142 882 q 1092 846 1142 846 q 1057 875 1057 846 l 1057 901 m 1327 170 q 1333 174 1329 174 q 1337 172 1335 174 q 1342 163 1343 169 q 1322 18 1322 37 q 1339 -32 1322 -2 q 1348 -60 1348 -46 q 1309 -101 1348 -101 q 1221 -48 1278 -101 q 1074 273 1107 65 q 1046 735 1048 455 l 298 735 l 298 644 q 256 222 298 374 q 60 -109 205 41 q 56 -111 58 -111 q 43 -98 43 -111 q 44 -95 43 -97 q 186 238 150 56 q 214 623 214 387 q 205 821 214 747 q 309 770 239 807 l 1034 770 q 1084 812 1075 812 q 1135 778 1094 812 q 1163 743 1163 755 q 1128 710 1163 732 q 1126 659 1126 682 q 1145 340 1126 467 q 1227 75 1164 178 q 1259 39 1251 39 q 1327 170 1273 39 z "},"既":{"ha":1389,"x_min":53,"x_max":1329,"o":"m 1048 589 l 1141 589 q 1207 659 1196 659 q 1280 604 1215 659 q 1308 566 1308 580 q 1291 554 1308 554 l 1036 554 l 1034 547 q 989 448 1014 498 q 1079 420 1079 435 q 1038 383 1079 401 l 1038 47 q 1057 12 1038 19 q 1132 3 1076 3 q 1192 8 1175 3 q 1219 26 1208 12 q 1279 197 1243 52 q 1286 201 1281 201 q 1296 193 1296 201 q 1291 63 1291 102 q 1310 28 1291 37 q 1329 -5 1329 20 q 1279 -57 1329 -40 q 1137 -71 1230 -71 q 991 -45 1028 -71 q 958 37 958 -22 l 961 258 q 960 391 961 359 q 433 -83 781 77 q 431 -83 431 -83 q 419 -70 419 -83 q 421 -65 419 -66 q 946 542 808 183 l 950 554 l 736 554 q 642 546 688 554 l 627 599 q 736 589 688 589 l 758 589 l 758 1018 q 672 1010 715 1018 l 658 1062 q 760 1053 705 1053 l 1133 1053 q 1197 1116 1187 1116 q 1265 1066 1206 1116 q 1293 1030 1293 1042 q 1275 1018 1293 1018 l 1139 1018 q 1048 589 1114 781 m 962 589 q 1053 1018 1027 770 l 840 1018 l 840 589 l 962 589 m 245 165 q 501 256 358 196 q 389 426 460 351 q 388 430 388 427 q 397 438 388 438 q 401 437 399 438 q 562 308 503 382 q 611 196 611 246 q 566 138 611 138 q 526 186 539 138 q 513 227 518 214 q 134 50 327 116 q 104 -1 123 -1 q 85 22 95 -1 q 53 127 75 48 q 135 139 97 132 l 164 144 l 164 713 q 159 1101 164 1005 q 256 1054 197 1085 l 508 1054 q 557 1094 547 1094 q 608 1059 568 1094 q 631 1029 631 1040 q 597 994 631 1017 l 597 847 l 603 517 q 554 481 603 481 q 518 510 518 481 l 518 535 l 245 535 l 245 165 m 245 778 l 245 570 l 518 570 l 518 778 l 245 778 m 518 812 l 518 1019 l 245 1019 l 245 812 l 518 812 z "},"晴":{"ha":1389,"x_min":123,"x_max":1346,"o":"m 386 193 l 210 193 l 210 109 q 159 74 210 74 q 123 102 123 74 l 130 646 q 123 1090 130 991 q 218 1044 168 1072 l 378 1044 q 426 1086 416 1086 q 476 1053 435 1086 q 500 1023 500 1034 q 465 986 500 1009 l 465 707 l 469 142 q 419 109 469 109 q 386 136 386 109 l 386 193 m 386 228 l 386 618 l 210 618 l 210 228 l 386 228 m 386 653 l 386 1010 l 210 1010 l 210 653 l 386 653 m 1100 184 l 684 184 l 684 -68 q 633 -109 684 -109 q 597 -77 597 -109 l 604 325 q 598 582 604 503 q 695 533 648 561 l 1089 533 q 1137 574 1127 574 q 1192 538 1147 574 q 1215 508 1215 521 q 1179 472 1215 494 l 1179 331 l 1184 7 q 1140 -83 1184 -54 q 1078 -103 1112 -103 q 1056 -82 1059 -103 q 1018 -37 1053 -53 q 916 -9 987 -21 q 909 1 909 -7 q 916 9 909 9 q 1078 3 1020 3 q 1100 25 1100 3 l 1100 184 m 1100 219 l 1100 343 l 684 343 l 684 219 l 1100 219 m 1100 378 l 1100 498 l 684 498 l 684 378 l 1100 378 m 844 681 l 844 814 l 659 814 q 582 806 623 814 l 568 858 q 657 848 616 848 l 844 848 l 844 972 l 632 972 q 551 964 591 972 l 537 1017 q 632 1007 590 1007 l 844 1007 q 838 1166 844 1106 q 954 1146 927 1156 q 972 1128 972 1139 q 925 1093 972 1112 l 925 1007 l 1147 1007 q 1211 1068 1200 1068 q 1280 1021 1221 1068 q 1310 986 1310 998 q 1291 972 1310 972 l 925 972 l 925 848 l 1104 848 q 1162 905 1151 905 q 1229 859 1174 905 q 1254 827 1254 838 q 1236 814 1254 814 l 925 814 l 925 681 l 1189 681 q 1250 739 1240 739 q 1320 690 1260 739 q 1346 659 1346 669 q 1328 646 1346 646 l 603 646 q 521 638 573 646 l 508 689 q 603 681 553 681 l 844 681 z "},"月":{"ha":1389,"x_min":128,"x_max":1089,"o":"m 963 400 l 427 400 q 396 262 418 340 q 144 -92 334 58 q 141 -93 143 -93 q 128 -81 128 -93 q 130 -77 128 -79 q 315 269 270 87 q 359 754 359 445 q 351 1120 359 1044 q 460 1063 402 1098 l 952 1063 q 1006 1110 996 1110 q 1067 1070 1017 1110 q 1089 1039 1089 1050 q 1052 1002 1089 1027 l 1052 660 l 1057 26 q 1004 -68 1057 -39 q 937 -86 971 -86 q 918 -82 922 -86 q 911 -64 913 -78 q 865 -18 907 -37 q 750 16 831 -2 q 745 26 745 18 q 751 36 745 37 q 938 25 865 25 q 963 56 963 25 l 963 400 m 963 435 l 963 720 l 448 720 q 433 435 441 513 l 963 435 m 963 754 l 963 1028 l 448 1028 l 448 754 l 963 754 z "},"東":{"ha":1389,"x_min":39,"x_max":1347,"o":"m 641 311 q 361 79 518 172 q 51 -61 230 0 q 50 -61 50 -61 q 39 -46 39 -61 q 43 -40 39 -41 q 577 368 383 113 l 342 368 l 342 345 q 290 307 342 307 q 254 336 254 307 l 261 615 q 252 854 261 787 q 354 804 309 831 l 637 804 l 637 951 l 185 951 q 85 943 137 951 l 71 997 q 185 986 125 986 l 637 986 l 637 1000 q 627 1164 637 1116 q 749 1143 726 1152 q 768 1125 768 1137 q 720 1088 768 1107 l 720 986 l 1130 986 q 1202 1057 1190 1057 q 1280 1003 1212 1057 q 1314 964 1314 976 q 1297 951 1314 951 l 720 951 l 720 804 l 1031 804 q 1081 847 1073 847 q 1135 810 1092 847 q 1159 778 1159 788 q 1123 743 1159 766 l 1123 625 l 1128 347 q 1076 313 1128 313 q 1047 319 1054 313 q 1041 343 1041 326 l 1041 368 l 737 368 q 1026 140 864 223 q 1341 43 1160 71 q 1347 37 1347 42 q 1340 28 1347 30 q 1282 -22 1295 16 q 1254 -54 1271 -54 q 1181 -31 1231 -54 q 955 97 1051 30 q 716 346 819 197 q 724 75 717 309 q 727 -75 727 -50 q 669 -114 727 -114 q 630 -81 630 -114 q 641 311 630 -11 m 637 403 l 637 575 l 342 575 l 342 403 l 637 403 m 720 403 l 1041 403 l 1041 575 l 720 575 l 720 403 m 720 770 l 720 610 l 1041 610 l 1041 770 l 720 770 m 637 770 l 342 770 l 342 610 l 637 610 l 637 770 z "},"極":{"ha":1389,"x_min":31,"x_max":1348,"o":"m 239 846 l 239 961 q 233 1157 239 1101 q 346 1138 322 1147 q 363 1120 363 1132 q 319 1086 363 1104 l 319 846 l 384 846 q 438 903 426 903 q 502 857 448 903 q 526 823 526 836 q 506 811 526 811 l 319 811 l 319 711 q 417 629 381 680 q 446 551 446 587 q 410 501 446 501 q 380 541 385 501 q 319 686 366 635 l 319 628 l 320 -71 q 266 -106 320 -106 q 233 -77 233 -106 q 237 131 233 -48 q 246 596 242 343 q 49 220 168 365 q 43 218 47 218 q 31 228 31 218 q 32 231 31 229 q 160 526 104 359 q 231 811 210 677 l 155 811 q 68 804 131 811 l 55 854 q 155 846 102 846 l 239 846 m 733 800 q 725 782 731 796 q 718 768 721 773 q 680 743 707 743 q 630 765 630 743 q 641 793 630 774 q 739 1019 700 901 l 562 1019 q 467 1011 513 1019 l 454 1063 q 562 1054 503 1054 l 1154 1054 q 1223 1122 1210 1122 q 1295 1070 1232 1122 q 1326 1031 1326 1045 q 1307 1019 1326 1019 l 822 1019 q 749 835 783 907 l 842 835 q 886 875 878 875 q 937 842 899 875 q 960 810 960 820 q 925 777 960 799 q 896 235 917 393 q 842 75 881 119 q 751 37 808 37 q 736 52 737 37 q 703 96 732 80 q 614 125 677 111 q 609 134 609 126 q 616 142 609 143 q 754 130 714 130 q 801 169 784 130 q 825 273 815 201 q 848 800 843 410 l 733 800 m 1109 468 q 1161 700 1146 585 l 1069 700 q 978 690 1026 700 l 964 745 q 1069 734 1017 734 l 1156 734 q 1200 775 1190 775 q 1251 739 1213 775 q 1274 703 1274 715 q 1236 676 1274 693 q 1161 414 1206 523 q 1281 187 1281 276 q 1245 143 1281 143 q 1219 157 1229 143 q 1189 222 1206 174 q 1132 346 1173 270 q 899 60 1046 173 q 895 58 897 58 q 884 70 884 58 q 885 74 884 72 q 1092 411 1018 211 q 963 564 1029 503 q 962 568 962 566 q 972 579 962 579 q 976 578 975 579 q 1109 468 1049 528 m 674 313 l 547 313 l 547 257 q 504 228 547 228 q 475 252 475 228 l 479 490 q 473 685 479 640 q 552 644 507 671 l 667 644 q 709 680 699 680 q 750 653 718 680 q 771 621 771 634 q 742 591 771 610 l 742 503 l 745 273 q 703 243 745 243 q 674 269 674 243 l 674 313 m 674 347 l 674 608 l 547 608 l 547 347 l 674 347 m 408 -53 l 395 -2 q 504 -10 448 -10 l 1177 -10 q 1245 56 1234 56 q 1319 2 1255 56 q 1348 -33 1348 -20 q 1329 -45 1348 -45 l 504 -45 q 408 -53 467 -45 z "},"機":{"ha":1389,"x_min":28,"x_max":1339,"o":"m 861 400 l 629 400 q 618 290 627 351 q 759 231 707 271 q 805 156 805 195 q 791 119 805 134 q 768 109 781 109 q 726 142 741 109 q 612 265 682 230 q 363 -95 559 25 q 360 -96 361 -96 q 348 -84 348 -96 q 349 -81 348 -82 q 546 400 538 100 l 498 400 q 410 393 455 400 l 396 444 q 498 435 443 435 l 853 435 l 846 465 q 804 1002 813 619 q 796 1149 802 1105 q 930 1114 930 1132 q 884 1076 930 1095 q 890 726 885 835 q 917 494 898 591 q 930 435 924 457 l 1177 435 q 1236 497 1227 497 q 1306 446 1248 497 q 1330 414 1330 424 q 1311 400 1330 400 l 939 400 q 1027 208 972 292 q 1065 256 1040 225 q 1125 353 1110 311 q 1217 277 1217 293 q 1186 264 1217 264 q 1166 265 1178 264 q 1068 153 1115 198 q 1161 66 1107 108 q 1235 22 1221 22 q 1313 168 1257 22 q 1319 172 1315 172 q 1323 172 1321 172 q 1329 163 1329 170 q 1309 12 1309 55 q 1322 -17 1309 -5 q 1339 -52 1339 -30 q 1326 -83 1339 -71 q 1297 -94 1315 -94 q 1150 -28 1244 -94 q 1010 102 1069 30 q 620 -79 855 -26 q 609 -68 609 -81 q 613 -62 609 -64 q 971 154 820 12 q 861 400 895 266 m 501 624 q 644 859 566 704 q 682 949 668 903 q 774 884 774 898 q 730 865 774 867 q 536 625 629 712 q 711 643 637 632 q 670 726 698 690 q 669 729 669 727 q 677 736 669 736 q 681 735 680 736 q 765 663 734 707 q 789 593 789 627 q 778 557 789 571 q 754 546 768 546 q 733 557 739 546 q 722 597 727 567 l 718 618 q 511 558 619 584 q 492 524 503 524 q 474 542 482 524 q 449 625 465 563 q 501 624 469 624 m 229 835 l 229 988 q 222 1157 229 1110 q 335 1139 309 1148 q 354 1121 354 1133 q 307 1085 354 1106 l 307 835 l 347 835 q 394 888 383 888 q 454 840 404 888 q 471 812 471 824 q 452 800 471 800 l 307 800 l 307 692 q 411 615 374 661 q 441 538 441 576 q 404 488 441 488 q 380 499 388 488 q 368 541 374 510 q 307 667 351 624 l 307 602 l 308 -77 q 256 -114 308 -114 q 222 -83 222 -114 q 224 -2 222 -76 q 235 575 231 233 q 145 363 191 447 q 46 221 104 290 q 41 220 44 220 q 28 230 28 220 q 29 233 28 231 q 220 800 161 467 l 146 800 q 66 793 111 800 l 51 844 q 146 835 109 835 l 229 835 m 1014 939 q 1076 1060 1050 997 q 1099 1128 1094 1099 q 1187 1086 1168 1097 q 1204 1067 1204 1076 q 1194 1054 1204 1057 q 1154 1047 1185 1050 q 1035 922 1103 980 q 1078 846 1078 882 q 1067 810 1078 825 q 1045 798 1057 798 q 1010 836 1022 798 q 931 964 990 908 q 928 968 928 966 q 938 977 928 977 q 941 976 939 977 q 1014 939 983 961 m 1231 654 q 986 597 1126 622 q 962 562 977 562 q 928 663 951 562 q 990 661 954 661 l 1000 661 q 1145 875 1076 753 q 1181 956 1172 924 q 1260 908 1246 918 q 1276 889 1276 897 q 1231 871 1276 873 q 1039 663 1120 734 q 1223 679 1101 665 q 1180 755 1208 718 q 1179 758 1179 756 q 1188 765 1179 765 q 1191 764 1190 765 q 1282 690 1249 735 q 1310 616 1310 652 q 1272 567 1310 567 q 1249 578 1255 567 q 1238 623 1242 589 q 1231 654 1235 642 m 515 935 q 574 1067 552 1006 q 589 1129 587 1107 q 679 1091 661 1102 q 695 1072 695 1082 q 647 1051 695 1056 q 539 917 604 978 q 588 835 588 877 q 555 790 588 790 q 523 825 536 790 q 432 959 492 905 q 430 962 430 960 q 440 971 430 973 q 515 935 484 956 m 1008 567 q 1005 572 1005 568 q 1015 581 1005 582 q 1155 492 1155 558 q 1122 450 1155 450 q 1093 473 1103 450 q 1008 567 1065 538 z "},"気":{"ha":1389,"x_min":77,"x_max":1322,"o":"m 578 314 q 675 469 630 381 q 709 546 700 519 q 824 473 824 497 q 768 450 824 450 q 642 267 709 345 q 807 52 807 135 q 795 17 807 30 q 768 5 784 5 q 701 71 743 5 q 593 211 662 138 q 127 -65 413 25 q 125 -65 125 -65 q 115 -52 115 -65 q 118 -45 115 -47 q 539 265 376 75 q 298 451 437 359 q 295 456 295 452 q 305 467 295 467 q 307 466 307 467 q 578 314 455 399 m 403 985 l 1013 985 q 1088 1061 1076 1061 q 1168 1004 1098 1061 q 1203 964 1203 976 q 1185 950 1203 950 l 385 950 q 93 613 275 751 q 90 612 92 612 q 77 625 77 612 q 78 629 77 627 q 237 838 159 707 q 339 1048 300 945 q 370 1160 362 1113 q 500 1103 500 1125 q 445 1074 500 1083 q 403 985 424 1023 m 368 775 l 354 825 q 458 817 404 817 l 897 817 q 965 883 955 883 q 1039 830 974 883 q 1069 794 1069 806 q 1050 782 1069 782 l 458 782 q 368 775 414 782 m 1293 231 q 1303 237 1295 239 q 1309 227 1310 235 q 1292 46 1292 66 q 1308 4 1292 20 q 1322 -29 1322 -9 q 1307 -63 1322 -50 q 1276 -75 1293 -75 q 1200 -41 1246 -75 q 1036 186 1090 38 q 987 370 1002 278 q 972 599 975 460 l 322 599 q 221 591 261 599 l 207 642 q 321 633 276 633 l 958 633 q 1013 682 1004 682 q 1071 643 1026 682 q 1095 610 1095 623 q 1059 572 1095 595 q 1101 250 1062 369 q 1189 92 1131 162 q 1224 64 1213 64 q 1293 231 1243 64 z "},"氷":{"ha":1389,"x_min":52,"x_max":1332,"o":"m 730 884 l 730 832 q 736 322 730 633 q 741 5 741 24 q 695 -85 741 -54 q 618 -109 665 -109 q 603 -103 606 -109 q 597 -82 600 -99 q 557 -35 591 -50 q 426 -3 523 -19 q 420 7 420 -1 q 427 17 420 18 q 625 5 549 5 q 650 31 650 5 l 650 840 q 640 1141 650 1083 q 767 1123 743 1131 q 786 1103 786 1117 q 732 1063 786 1084 q 850 583 770 761 q 1057 831 976 701 q 1111 930 1099 899 q 1211 867 1192 882 q 1227 842 1227 854 q 1187 825 1227 825 q 1168 825 1175 825 q 862 558 1029 666 q 930 441 895 491 q 1328 109 1085 216 q 1332 103 1332 107 q 1322 93 1332 95 q 1265 50 1283 87 q 1239 21 1251 21 q 1198 43 1229 21 q 880 406 1008 175 q 730 884 782 586 m 212 1021 q 209 1027 209 1023 q 218 1037 209 1037 q 220 1036 219 1037 q 396 954 331 1008 q 451 861 451 907 q 435 819 451 836 q 406 804 422 804 q 364 840 378 804 q 212 1021 313 954 m 66 17 q 64 16 66 16 q 52 28 52 16 q 54 33 52 31 q 453 635 360 267 l 217 635 q 110 627 155 635 l 96 680 q 217 669 168 669 l 446 669 q 498 717 488 717 q 557 672 509 717 q 580 637 580 652 q 536 608 580 626 q 347 245 471 393 q 66 17 237 114 z "},"江":{"ha":1389,"x_min":60,"x_max":1329,"o":"m 859 946 l 859 58 l 1143 58 q 1217 135 1208 135 q 1297 78 1229 135 q 1329 36 1329 52 q 1311 24 1329 24 l 477 24 q 382 16 440 24 l 368 68 q 477 58 418 58 l 768 58 l 768 946 l 562 946 q 472 938 515 946 l 458 990 q 562 981 505 981 l 1093 981 q 1164 1055 1154 1055 q 1244 998 1175 1055 q 1276 958 1276 972 q 1258 946 1276 946 l 859 946 m 157 1103 q 153 1109 153 1105 q 163 1118 153 1120 q 324 1057 264 1101 q 376 971 376 1017 q 329 916 376 916 q 283 960 304 916 q 157 1103 241 1050 m 75 783 q 71 789 71 785 q 81 799 71 800 q 236 740 176 785 q 287 660 287 702 q 239 602 287 602 q 195 646 212 602 q 75 783 158 730 m 458 766 q 464 770 460 770 q 475 760 475 770 q 475 758 475 760 q 267 283 385 528 q 251 213 251 252 q 267 115 251 177 q 288 14 288 45 q 220 -72 288 -72 q 172 1 172 -72 q 176 58 172 16 q 182 142 182 111 q 155 228 182 203 q 66 264 132 248 q 60 273 60 265 q 68 283 60 285 q 139 278 113 278 q 210 326 180 278 q 458 766 317 498 z "},"海":{"ha":1389,"x_min":46,"x_max":1350,"o":"m 521 144 q 503 81 510 104 q 458 54 496 54 q 417 73 417 54 q 421 94 417 82 q 512 454 471 252 l 471 454 q 389 446 432 454 l 375 497 q 472 489 433 489 l 518 489 q 536 591 526 527 q 565 832 559 717 q 652 779 599 817 l 1087 779 q 1137 824 1128 824 q 1190 788 1148 824 q 1214 754 1214 764 q 1175 718 1214 741 q 1158 489 1167 599 l 1201 489 q 1260 553 1249 553 q 1325 503 1267 553 q 1350 468 1350 481 q 1332 454 1350 454 l 1156 454 q 1122 179 1145 313 l 1169 179 q 1229 243 1221 243 q 1297 193 1239 243 q 1324 157 1324 171 q 1305 144 1324 144 l 1115 144 q 1053 -49 1088 4 q 947 -102 1015 -102 q 930 -98 934 -102 q 925 -82 927 -94 q 892 -41 922 -58 q 795 -5 864 -24 q 791 4 791 -3 q 798 14 791 15 q 957 -2 907 -2 q 1031 140 1002 -2 l 1033 144 l 521 144 m 530 179 l 739 179 q 786 454 763 301 l 593 454 q 530 179 568 315 m 1039 179 q 1057 296 1053 257 q 1075 454 1063 349 l 865 454 q 819 179 846 317 l 1039 179 m 1078 489 q 1094 745 1086 599 l 900 745 q 871 489 886 612 l 1078 489 m 822 745 l 637 745 q 600 489 622 614 l 791 489 q 822 745 808 599 m 630 966 l 1137 966 q 1206 1036 1196 1036 q 1284 981 1215 1036 q 1313 944 1313 956 q 1294 932 1313 932 l 612 932 q 419 688 530 786 q 415 686 417 686 q 403 699 403 686 q 404 702 403 700 q 569 1020 498 827 q 607 1160 597 1097 q 713 1121 691 1132 q 731 1101 731 1112 q 680 1074 731 1081 q 630 966 656 1015 m 151 1107 q 148 1113 148 1109 q 158 1122 148 1124 q 317 1061 258 1105 q 368 975 368 1022 q 352 934 368 949 q 322 921 339 921 q 277 964 298 921 q 151 1107 235 1054 m 51 779 q 47 785 47 781 q 58 794 47 795 q 211 735 152 780 q 261 656 261 698 q 245 614 261 629 q 215 600 233 600 q 171 643 187 600 q 51 779 135 725 m 378 781 q 383 785 379 785 q 395 776 395 785 q 395 774 395 775 q 250 277 319 486 q 235 195 235 228 q 254 102 235 158 q 271 4 271 32 q 205 -81 271 -81 q 156 -7 156 -81 q 158 20 156 0 q 160 49 160 44 q 166 147 166 107 q 141 222 166 200 q 52 260 117 243 q 46 269 46 260 q 54 279 46 281 q 125 273 98 273 q 160 281 148 273 q 190 319 176 291 q 378 781 273 492 z "},"湿":{"ha":1389,"x_min":59,"x_max":1348,"o":"m 984 3 l 1175 3 q 1245 77 1233 77 q 1319 20 1255 77 q 1348 -20 1348 -6 q 1330 -32 1348 -32 l 456 -32 q 364 -39 413 -32 l 352 12 q 458 3 410 3 l 702 3 l 702 371 q 696 522 702 484 q 823 490 823 510 q 783 461 823 475 l 783 3 l 903 3 l 903 371 q 898 522 903 484 q 1024 490 1024 510 q 984 461 1024 475 l 984 3 m 1102 579 l 593 579 l 593 561 q 543 525 593 525 q 507 554 507 525 l 514 857 q 506 1124 514 1040 q 604 1074 547 1109 l 1090 1074 q 1141 1118 1133 1118 q 1195 1082 1151 1118 q 1219 1050 1219 1063 q 1183 1013 1219 1038 l 1183 875 l 1188 561 q 1138 525 1188 525 q 1109 532 1116 525 q 1102 555 1102 538 l 1102 579 m 1102 614 l 1102 812 l 593 812 l 593 614 l 1102 614 m 1102 847 l 1102 1039 l 593 1039 l 593 847 l 1102 847 m 440 425 q 439 429 439 427 q 449 437 439 437 q 453 436 451 437 q 586 298 543 376 q 618 185 618 240 q 604 134 618 153 q 566 115 590 115 q 537 132 545 115 q 525 189 529 149 q 440 425 513 320 m 1044 89 q 1040 87 1043 87 q 1025 98 1025 87 q 1026 100 1025 99 q 1152 368 1106 240 q 1174 457 1171 425 q 1278 410 1261 420 q 1298 390 1298 399 q 1247 368 1298 370 q 1044 89 1167 213 m 168 1107 q 165 1113 165 1109 q 175 1122 165 1124 q 334 1061 275 1105 q 385 975 385 1022 q 370 934 385 949 q 339 921 356 921 q 294 964 315 921 q 168 1107 252 1054 m 70 781 q 66 787 66 783 q 76 796 66 798 q 233 735 170 782 q 287 653 287 695 q 271 611 287 627 q 240 597 258 597 q 196 640 213 597 q 70 781 160 722 m 422 760 q 428 764 424 764 q 439 755 439 764 q 439 753 439 754 q 265 277 352 484 q 250 204 250 240 q 271 93 250 171 q 286 4 286 37 q 219 -81 286 -81 q 170 -7 170 -81 q 174 49 170 15 q 180 134 180 101 q 152 219 180 195 q 64 256 130 239 q 59 264 59 258 q 66 275 59 277 q 138 269 111 269 q 205 319 179 269 q 422 760 334 559 z "},"盆":{"ha":1389,"x_min":59,"x_max":1339,"o":"m 267 -17 l 267 212 q 264 385 267 321 q 115 340 211 365 q 106 353 106 339 q 110 360 106 359 q 436 549 326 438 q 561 783 533 648 l 483 783 q 377 774 421 783 l 363 829 q 481 818 422 818 l 923 818 q 964 852 956 852 q 1017 818 972 852 q 1044 790 1044 798 q 1012 760 1044 779 q 974 545 997 618 q 919 454 953 474 q 849 433 888 433 q 831 453 834 433 q 795 494 826 478 q 690 528 766 507 q 684 537 684 529 q 691 547 684 549 q 857 533 782 533 q 902 593 884 533 q 932 783 919 646 l 652 783 q 523 541 616 637 q 287 393 443 458 q 359 354 340 366 l 1010 354 q 1061 397 1052 397 q 1114 360 1071 397 q 1138 328 1138 339 q 1102 293 1138 313 l 1102 -17 l 1158 -17 q 1224 56 1213 56 q 1299 -1 1234 56 q 1327 -39 1327 -24 q 1309 -52 1327 -52 l 169 -52 q 75 -58 115 -52 l 62 -7 q 168 -17 109 -17 l 267 -17 m 598 -17 l 764 -17 l 764 319 l 598 319 l 598 -17 m 517 -17 l 517 319 l 349 319 l 349 -17 l 517 -17 m 1019 -17 l 1019 319 l 845 319 l 845 -17 l 1019 -17 m 1335 774 q 1339 768 1339 772 q 1333 760 1339 761 q 1298 741 1309 753 q 1278 698 1287 728 q 1259 682 1273 682 q 1211 699 1244 682 q 1017 839 1101 755 q 838 1069 904 952 q 815 1095 825 1092 q 798 1111 798 1101 q 820 1131 798 1117 q 845 1141 838 1141 q 853 1131 853 1141 l 853 1114 q 863 1089 853 1106 q 1056 893 934 980 q 1335 774 1176 807 m 73 665 q 71 665 72 665 q 59 679 59 665 q 62 684 59 682 q 417 1031 290 828 q 474 1146 462 1102 q 581 1097 556 1114 q 600 1072 600 1085 q 534 1049 600 1050 q 73 665 375 802 z "},"知":{"ha":1389,"x_min":66,"x_max":1270,"o":"m 290 901 l 554 901 q 618 965 606 965 q 686 916 628 965 q 715 882 715 891 q 697 867 715 867 l 468 867 q 455 562 465 664 l 572 562 q 635 627 624 627 q 705 575 645 627 q 733 540 733 552 q 715 528 733 528 l 451 528 q 425 390 444 464 q 618 238 547 323 q 679 109 679 165 q 664 66 679 82 q 633 52 651 52 q 583 110 603 52 q 418 366 531 258 q 283 108 374 214 q 82 -59 208 20 q 79 -60 80 -60 q 66 -47 66 -60 q 68 -43 66 -45 q 255 173 188 58 q 347 418 317 280 q 365 528 358 469 l 176 528 q 86 519 121 528 l 73 572 q 176 562 126 562 l 369 562 q 382 867 379 649 l 272 867 q 105 652 209 747 q 102 650 104 650 q 89 662 89 650 q 90 666 89 664 q 247 1008 197 807 q 271 1141 269 1103 q 404 1093 404 1116 q 353 1064 404 1075 q 290 901 323 975 m 1147 90 l 857 90 l 857 -1 q 802 -43 857 -43 q 765 -14 765 -43 q 772 525 772 506 q 764 989 772 900 q 869 937 810 971 l 1139 937 q 1191 985 1181 985 q 1246 946 1202 985 q 1270 913 1270 924 q 1233 876 1270 901 l 1233 586 q 1241 5 1233 462 q 1185 -35 1241 -35 q 1147 -3 1147 -35 l 1147 90 m 1147 125 l 1147 903 l 857 903 l 857 125 l 1147 125 z "},"神":{"ha":1389,"x_min":37,"x_max":1297,"o":"m 338 575 l 338 572 q 493 483 435 538 q 541 396 541 437 q 528 358 541 373 q 503 346 517 346 q 456 393 480 346 q 338 545 404 494 l 338 -66 q 287 -108 338 -108 q 251 -73 251 -108 q 252 -23 251 -68 q 258 330 256 119 q 262 494 258 410 q 51 342 170 408 q 48 342 50 342 q 37 355 37 342 q 39 359 37 357 q 422 856 300 566 l 181 856 q 77 846 115 856 l 64 899 q 181 890 110 890 l 259 890 l 259 1038 q 251 1164 259 1101 q 368 1143 341 1152 q 390 1125 390 1137 q 341 1088 390 1109 l 341 890 l 419 890 q 465 930 455 930 q 522 882 474 930 q 545 848 545 859 q 496 820 545 831 q 338 575 431 683 m 963 330 q 966 35 964 165 q 967 -64 967 -60 q 913 -109 967 -109 q 874 -72 874 -109 q 875 -14 874 -62 q 878 330 878 136 l 677 330 l 677 298 q 627 262 677 262 q 589 290 589 262 l 596 652 q 589 949 596 859 q 688 897 655 917 l 880 897 q 873 1164 880 1068 q 989 1144 966 1152 q 1009 1125 1009 1138 q 962 1088 1009 1106 l 962 897 l 1168 897 q 1221 943 1210 943 q 1275 906 1230 943 q 1297 873 1297 885 q 1260 836 1297 859 l 1260 672 l 1267 302 q 1214 264 1267 264 q 1185 272 1192 264 q 1178 296 1178 279 l 1178 330 l 963 330 m 963 364 l 1178 364 l 1178 606 l 962 606 l 963 364 m 878 364 l 880 606 l 677 606 l 677 364 l 878 364 m 962 640 l 1178 640 l 1178 863 l 962 863 l 962 640 m 880 640 l 880 863 l 677 863 l 677 640 l 880 640 z "},"穣":{"ha":1389,"x_min":31,"x_max":1344,"o":"m 336 721 l 336 607 q 459 539 416 580 q 496 471 496 505 q 455 421 496 421 q 422 454 433 421 q 336 579 393 536 l 336 374 l 337 -70 q 287 -109 337 -109 q 250 -77 250 -109 q 252 -1 250 -71 q 263 542 259 217 q 49 212 184 352 q 44 211 47 211 q 31 221 31 211 q 32 224 31 222 q 243 721 176 424 l 152 721 q 73 713 125 721 l 60 766 q 151 755 109 755 l 258 755 l 258 986 q 81 957 178 966 q 72 968 72 956 q 77 975 72 975 q 346 1081 230 1013 q 429 1143 398 1113 q 520 1064 520 1081 q 492 1049 520 1049 q 459 1055 478 1049 q 336 1007 390 1025 l 336 755 l 394 755 q 446 808 435 808 q 505 766 456 808 q 529 733 529 745 q 511 721 529 721 l 336 721 m 903 354 q 1017 179 952 245 q 1107 273 1074 232 q 1140 328 1128 300 q 1236 248 1236 269 q 1209 236 1236 236 q 1179 239 1197 236 q 1037 157 1102 186 q 1076 125 1062 134 q 1339 8 1181 46 q 1344 2 1344 7 q 1337 -7 1344 -5 q 1300 -24 1312 -12 q 1278 -62 1289 -35 q 1257 -82 1271 -82 q 1213 -65 1246 -82 q 1043 58 1117 -18 q 875 353 930 176 q 737 236 806 282 l 737 33 q 951 83 859 55 q 952 83 951 83 q 960 73 960 83 q 956 65 960 67 q 569 -71 781 -24 q 543 -114 560 -114 q 495 7 525 -114 q 589 12 533 7 q 661 22 635 18 l 661 190 q 401 89 556 134 q 399 89 400 89 q 390 102 390 89 q 394 109 390 107 q 766 354 633 201 l 552 354 q 463 346 509 354 l 450 398 q 552 389 496 389 l 698 389 l 698 510 l 638 510 q 552 502 595 510 l 538 553 q 638 545 585 545 l 698 545 l 698 656 l 605 656 q 516 648 573 656 l 503 699 q 604 690 551 690 l 698 690 q 692 812 698 768 q 795 798 772 806 q 811 783 811 793 q 772 754 811 770 l 772 690 l 964 690 q 958 812 964 768 q 1057 798 1034 805 q 1074 783 1074 793 q 1037 755 1074 769 l 1037 690 l 1136 690 q 1190 742 1179 742 q 1253 699 1200 742 q 1276 668 1276 680 q 1257 656 1276 656 l 1037 656 l 1037 545 l 1119 545 q 1173 597 1164 597 q 1234 554 1183 597 q 1258 522 1258 534 q 1240 510 1258 510 l 1037 510 l 1037 389 l 1180 389 q 1237 444 1227 444 q 1302 399 1246 444 q 1327 366 1327 378 q 1308 354 1327 354 l 903 354 m 772 656 l 772 545 l 964 545 l 964 656 l 772 656 m 772 510 l 772 389 l 964 389 l 964 510 l 772 510 m 835 1010 l 835 1060 q 828 1157 835 1100 q 943 1138 916 1147 q 962 1121 962 1132 q 916 1086 962 1104 l 916 1010 l 1153 1010 q 1218 1075 1208 1075 q 1295 1023 1232 1075 q 1323 987 1323 1001 q 1304 975 1323 975 l 625 975 q 529 967 576 975 l 515 1019 q 624 1010 567 1010 l 835 1010 m 956 939 q 952 944 952 940 q 961 953 952 955 q 1169 890 1092 934 q 1236 808 1236 851 q 1200 770 1236 770 q 1156 802 1184 770 q 956 939 1074 889 m 524 771 q 522 771 522 771 q 512 781 512 771 q 515 785 512 784 q 680 906 604 828 q 717 957 703 929 q 824 895 824 909 q 782 879 824 879 q 758 880 772 879 q 524 771 674 808 z "},"者":{"ha":1389,"x_min":37,"x_max":1317,"o":"m 391 393 q 48 260 225 313 q 47 260 47 260 q 37 275 37 260 q 40 281 37 279 q 389 450 228 357 q 384 534 387 503 q 465 496 420 519 q 713 677 600 581 l 177 677 q 79 669 138 677 l 67 721 q 176 711 119 711 l 563 711 l 563 911 l 300 911 q 209 903 252 911 l 195 956 q 299 946 253 946 l 563 946 l 563 996 q 556 1163 563 1110 q 676 1143 650 1152 q 696 1124 696 1137 q 649 1081 696 1101 l 649 946 l 775 946 q 842 1010 830 1010 q 913 961 855 1010 q 942 925 942 937 q 924 911 942 911 l 649 911 l 649 711 l 753 711 q 981 954 888 833 q 1081 1106 1052 1045 q 1198 1028 1198 1046 q 1152 1008 1198 1008 q 1135 1008 1141 1008 q 867 711 1021 850 l 1134 711 q 1207 784 1196 784 q 1285 728 1221 784 q 1317 689 1317 699 q 1299 677 1317 677 l 827 677 q 555 482 702 572 l 951 482 q 1007 530 996 530 q 1065 492 1021 530 q 1089 458 1089 471 q 1052 422 1089 447 l 1052 285 l 1059 -66 q 1002 -104 1059 -104 q 966 -74 966 -104 l 966 -22 l 475 -22 l 475 -71 q 420 -107 475 -107 q 385 -75 385 -107 l 391 264 l 391 393 m 475 438 l 475 258 l 966 258 l 966 448 l 495 448 l 475 438 m 966 12 l 966 224 l 475 224 l 475 12 l 966 12 z "},"脈":{"ha":1389,"x_min":37,"x_max":1358,"o":"m 896 770 l 896 335 l 901 -52 q 847 -89 901 -89 q 810 -61 810 -89 l 817 289 l 817 756 q 675 738 769 749 q 635 278 671 469 q 467 -95 590 51 q 462 -97 465 -97 q 450 -88 450 -97 q 450 -85 450 -87 q 570 290 540 73 q 595 752 595 475 q 586 1034 595 952 q 686 983 609 1025 q 1035 1107 882 1028 q 1122 1166 1099 1140 q 1210 1072 1210 1090 q 1190 1060 1210 1060 q 1146 1068 1174 1060 q 675 951 937 980 l 675 764 q 1064 882 899 806 q 1174 954 1133 913 q 1254 863 1254 884 q 1235 853 1254 853 q 1193 861 1218 853 q 1038 804 1126 832 q 1075 545 1052 656 q 1182 657 1135 597 q 1227 725 1221 707 q 1325 640 1325 657 q 1292 625 1325 625 q 1263 627 1280 625 q 1080 514 1180 562 q 1152 291 1109 391 q 1356 13 1222 123 q 1358 9 1358 11 q 1350 1 1358 3 q 1300 -58 1318 -8 q 1282 -73 1295 -73 q 1240 -36 1270 -73 q 1084 273 1147 82 q 1006 796 1023 471 q 896 770 963 785 m 378 408 l 216 408 q 196 244 207 303 q 56 -91 168 71 q 51 -93 54 -93 q 37 -81 37 -93 q 37 -79 37 -81 q 129 257 111 79 q 147 830 147 439 q 140 1129 147 1035 q 237 1078 196 1104 l 368 1078 q 416 1120 407 1120 q 469 1084 426 1120 q 492 1054 492 1064 q 457 1019 492 1040 l 457 667 l 460 15 q 424 -62 460 -34 q 358 -83 398 -83 q 342 -65 345 -83 q 316 -23 338 -37 q 235 3 293 -8 q 229 12 229 4 q 236 21 229 22 q 355 14 304 14 q 378 37 378 14 l 378 408 m 378 443 l 378 725 l 225 725 q 217 443 222 538 l 378 443 m 378 760 l 378 1043 l 227 1043 l 227 760 l 378 760 z "},"蒸":{"ha":1389,"x_min":47,"x_max":1346,"o":"m 930 550 q 1061 673 1008 612 q 1120 751 1105 720 q 1223 666 1223 680 q 1196 652 1223 652 q 1166 654 1183 652 q 946 532 1080 595 q 1028 454 987 484 q 1341 310 1161 354 q 1346 304 1346 309 q 1339 295 1346 296 q 1286 245 1299 285 q 1266 221 1277 221 q 1220 237 1251 221 q 984 406 1087 301 q 805 702 883 511 l 767 685 l 767 682 q 726 648 767 667 l 726 539 l 728 372 q 684 298 728 323 q 623 279 651 279 q 610 283 613 279 q 605 300 607 287 q 578 336 602 324 q 492 360 553 349 q 486 370 486 361 q 492 380 486 380 q 618 374 585 374 q 644 401 644 374 l 644 592 q 635 715 644 667 q 741 702 713 707 q 873 812 825 758 l 425 812 q 309 804 355 812 l 296 857 q 424 847 351 847 l 874 847 q 926 886 916 886 q 989 839 941 886 q 1012 807 1012 817 q 955 785 1012 789 q 833 715 890 743 q 930 550 868 627 m 897 1031 l 1128 1031 q 1198 1099 1187 1099 q 1278 1044 1211 1099 q 1308 1008 1308 1022 q 1289 996 1308 996 l 897 996 q 899 960 898 979 q 900 945 900 947 q 848 909 900 909 q 811 938 811 909 q 812 957 811 939 q 814 996 813 975 l 539 996 q 541 954 540 977 q 542 937 542 940 q 489 901 542 901 q 453 931 453 901 q 454 954 453 934 q 456 996 455 975 l 182 996 q 92 988 148 996 l 79 1040 q 182 1031 128 1031 l 456 1031 l 456 1040 q 449 1162 456 1110 q 565 1143 540 1151 q 585 1124 585 1136 q 539 1092 585 1110 l 539 1031 l 814 1031 q 808 1162 814 1109 q 923 1142 900 1149 q 943 1124 943 1136 q 897 1092 943 1109 l 897 1031 m 290 142 q 298 147 291 147 q 310 139 310 147 q 310 129 310 132 q 256 -45 310 24 q 155 -102 211 -102 q 117 -85 132 -102 q 104 -50 104 -71 q 157 1 104 -19 q 290 142 269 45 m 728 136 q 726 140 726 138 q 736 149 726 149 q 740 147 738 149 q 847 60 809 111 q 881 -31 881 16 q 866 -75 881 -58 q 832 -89 852 -89 q 789 -39 795 -89 q 728 136 775 72 m 1002 127 q 999 132 999 130 q 1010 143 999 143 q 1013 142 1011 143 q 1183 52 1124 111 q 1228 -41 1228 7 q 1213 -82 1228 -66 q 1182 -96 1200 -96 q 1132 -49 1149 -96 q 1077 52 1114 2 q 1002 127 1041 100 m 475 136 q 475 138 475 138 q 485 147 475 147 q 491 145 489 147 q 585 -28 585 70 q 566 -82 585 -62 q 527 -100 549 -100 q 490 -57 490 -100 l 495 4 q 475 136 495 89 m 281 193 l 268 244 q 371 235 325 235 l 917 235 q 985 300 972 300 q 1061 247 998 300 q 1089 212 1089 224 q 1071 200 1089 200 l 371 200 q 281 193 329 200 m 60 202 q 58 202 58 202 q 47 214 47 202 q 50 219 47 218 q 425 618 299 374 l 217 618 q 117 608 169 618 l 103 663 q 217 653 156 653 l 422 653 q 474 698 465 698 q 534 653 486 698 q 556 620 556 631 q 507 591 556 609 q 60 202 356 323 z "},"虹":{"ha":1389,"x_min":62,"x_max":1357,"o":"m 319 433 l 191 433 l 191 372 q 144 339 191 339 q 111 366 111 339 l 115 657 q 108 908 115 836 q 198 861 156 890 l 319 861 l 319 991 q 314 1158 319 1108 q 424 1140 399 1149 q 443 1122 443 1134 q 397 1089 443 1108 l 397 861 l 518 861 q 564 903 555 903 q 615 868 574 903 q 637 838 637 849 q 603 803 637 827 l 603 693 l 607 404 q 558 371 607 371 q 526 397 526 371 l 526 433 l 397 433 l 397 129 q 561 182 476 151 q 477 321 524 264 q 476 325 476 323 q 486 332 476 332 q 490 330 488 332 q 623 212 572 280 q 665 110 665 154 q 652 66 665 83 q 624 52 640 52 q 595 67 604 52 q 582 118 588 81 q 571 155 581 121 q 141 -22 397 64 q 116 -69 132 -69 q 96 -45 106 -69 q 62 56 85 -20 q 145 66 116 60 q 319 107 224 81 l 319 433 m 319 468 l 319 827 l 191 827 l 191 468 l 319 468 m 526 468 l 526 827 l 397 827 l 397 468 l 526 468 m 890 -5 l 890 966 l 728 966 q 637 958 681 966 l 625 1010 q 728 1000 682 1000 l 1147 1000 q 1214 1068 1202 1068 q 1288 1015 1224 1068 q 1318 979 1318 990 q 1300 966 1318 966 l 978 966 l 978 -5 l 1182 -5 q 1250 67 1240 67 q 1326 12 1262 67 q 1357 -26 1357 -16 q 1339 -40 1357 -40 l 629 -40 q 539 -48 586 -40 l 526 4 q 629 -5 585 -5 l 890 -5 z "},"豊":{"ha":1389,"x_min":66,"x_max":1318,"o":"m 503 1022 q 497 1166 503 1125 q 616 1132 616 1152 q 579 1100 616 1116 l 579 1022 l 781 1022 q 776 1166 781 1107 q 895 1132 895 1152 q 858 1099 895 1117 l 858 1022 l 1056 1022 q 1105 1065 1095 1065 q 1157 1030 1116 1065 q 1181 998 1181 1008 q 1146 964 1181 986 l 1146 871 l 1152 633 q 1099 599 1152 599 q 1065 627 1065 599 l 1065 632 l 304 632 l 304 625 q 255 591 304 591 q 220 620 220 591 l 224 854 q 218 1071 224 991 q 313 1022 274 1047 l 503 1022 m 858 667 l 1065 667 l 1065 815 l 858 815 l 858 667 m 781 667 l 781 815 l 579 815 l 579 667 l 781 667 m 503 667 l 503 815 l 304 815 l 304 667 l 503 667 m 858 850 l 1065 850 l 1065 987 l 858 987 l 858 850 m 781 850 l 781 987 l 579 987 l 579 850 l 781 850 m 503 850 l 503 987 l 304 987 l 304 850 l 503 850 m 372 191 l 372 177 q 321 140 372 140 q 292 147 300 140 q 286 171 286 154 l 289 310 q 283 454 289 397 q 386 404 327 437 l 987 404 q 1038 446 1029 446 q 1093 410 1048 446 q 1115 378 1115 389 q 1080 342 1115 366 l 1080 309 l 1084 191 q 1030 149 1084 149 q 997 178 997 149 l 997 191 l 372 191 m 997 225 l 997 370 l 372 370 l 372 225 l 997 225 m 768 -17 q 829 118 804 50 q 846 178 841 152 q 958 119 958 136 q 909 98 958 100 q 806 -17 845 20 l 1128 -17 q 1204 58 1194 58 q 1282 1 1213 58 q 1318 -39 1318 -28 q 1299 -52 1318 -52 l 187 -52 q 80 -60 129 -52 l 66 -9 q 189 -17 125 -17 l 768 -17 m 451 163 q 450 166 450 164 q 457 172 450 172 q 460 172 459 172 q 557 113 522 150 q 585 53 585 83 q 537 -4 585 -4 q 500 36 505 -4 q 451 163 488 113 m 98 489 l 85 541 q 193 532 146 532 l 1124 532 q 1192 601 1179 601 q 1270 547 1202 601 q 1301 511 1301 520 q 1283 497 1301 497 l 194 497 q 98 489 145 497 z "},"賢":{"ha":1389,"x_min":91,"x_max":1334,"o":"m 978 758 q 650 604 855 662 q 648 604 649 604 q 640 615 640 604 q 644 621 640 620 q 935 804 821 696 q 789 1059 850 906 q 728 1050 766 1057 l 713 1103 q 824 1095 771 1095 l 1122 1095 q 1173 1136 1164 1136 q 1232 1093 1181 1136 q 1253 1064 1253 1076 q 1207 1032 1253 1050 q 1028 800 1123 888 l 1044 788 q 1330 669 1162 702 q 1334 663 1334 667 q 1327 654 1334 656 q 1269 604 1288 645 q 1251 588 1261 588 q 1198 608 1239 588 q 982 753 1065 672 l 978 758 m 822 1060 q 977 845 891 924 q 1125 1060 1061 935 l 822 1060 m 461 960 l 567 960 q 610 996 602 996 q 656 965 617 996 q 680 935 680 945 q 647 901 680 924 l 647 884 l 650 806 q 603 774 650 774 q 572 796 572 774 l 572 800 l 461 800 l 461 690 l 561 690 q 613 739 604 739 q 677 693 623 739 q 696 668 696 676 q 677 656 696 656 l 227 656 l 227 621 q 180 589 227 589 q 145 617 145 589 l 151 895 q 143 1139 151 1075 q 237 1095 199 1116 l 557 1095 q 609 1143 599 1143 q 671 1100 619 1143 q 692 1074 692 1086 q 673 1060 692 1060 l 461 1060 l 461 960 m 387 960 l 387 1060 l 227 1060 l 227 960 l 387 960 m 227 925 l 227 835 l 572 835 l 572 925 l 227 925 m 227 690 l 387 690 l 387 800 l 227 800 l 227 690 m 996 114 l 374 114 l 374 109 q 324 75 374 75 q 287 103 287 75 l 292 370 q 285 616 292 547 q 385 567 336 596 l 987 567 q 1036 612 1027 612 q 1090 574 1045 612 q 1114 542 1114 554 q 1079 507 1114 531 l 1079 393 l 1085 117 q 1032 82 1085 82 q 996 110 996 82 l 996 114 m 996 149 l 996 260 l 374 260 l 374 149 l 996 149 m 996 294 l 996 396 l 374 396 l 374 294 l 996 294 m 996 431 l 996 532 l 374 532 l 374 431 l 996 431 m 789 53 q 784 60 784 54 q 791 69 784 69 q 1108 14 991 62 q 1208 -85 1208 -28 q 1194 -114 1208 -102 q 1168 -123 1183 -123 q 1108 -97 1143 -123 q 789 53 975 0 m 98 -117 q 91 -106 91 -118 q 96 -97 91 -98 q 379 16 260 -56 q 471 83 448 56 q 576 3 576 18 q 552 -8 576 -8 q 509 -4 536 -8 q 98 -117 331 -96 z "},"酒":{"ha":1389,"x_min":55,"x_max":1335,"o":"m 709 811 l 709 1023 l 517 1023 q 423 1013 467 1023 l 409 1065 q 516 1057 460 1057 l 1164 1057 q 1234 1122 1222 1122 q 1305 1072 1244 1122 q 1335 1035 1335 1048 q 1318 1023 1335 1023 l 977 1023 l 977 811 l 1148 811 q 1196 854 1187 854 q 1249 819 1207 854 q 1273 786 1273 800 q 1238 751 1273 776 l 1238 493 q 1245 -37 1238 190 q 1194 -72 1245 -72 q 1164 -66 1172 -72 q 1158 -44 1158 -60 l 1158 20 l 552 20 l 552 -39 q 500 -73 552 -73 q 465 -45 465 -73 q 471 428 471 178 q 463 860 471 771 q 562 811 494 848 l 709 811 m 784 811 l 903 811 l 903 1023 l 784 1023 l 784 811 m 1158 54 l 1158 237 l 552 237 l 552 54 l 1158 54 m 1158 272 l 1158 777 l 977 777 l 977 538 q 986 505 977 513 q 1017 499 994 499 q 1061 520 1051 499 q 1090 628 1074 548 q 1097 633 1090 633 q 1105 627 1105 633 l 1105 545 q 1123 510 1105 515 q 1142 486 1142 503 q 1116 446 1142 461 q 1017 429 1084 429 q 924 452 951 429 q 901 517 901 473 l 903 604 l 903 777 l 783 777 q 728 516 776 612 q 593 354 687 433 q 590 353 592 353 q 578 363 578 353 q 580 367 578 365 q 677 549 650 456 q 707 777 703 637 l 552 777 l 552 272 l 1158 272 m 152 1109 q 148 1116 148 1112 q 158 1125 148 1126 q 318 1063 259 1108 q 369 978 369 1025 q 353 937 369 952 q 322 924 340 924 q 278 966 298 924 q 152 1109 235 1057 m 64 791 q 60 798 60 793 q 71 807 60 808 q 224 748 165 793 q 275 668 275 710 q 259 626 275 642 q 228 612 246 612 q 184 656 200 612 q 64 791 148 737 m 395 747 q 401 751 396 751 q 412 743 412 751 q 412 741 412 742 q 261 286 328 469 q 245 214 245 245 q 268 99 245 184 q 281 14 281 44 q 215 -71 281 -71 q 166 3 166 -71 q 170 57 166 24 q 176 143 176 109 q 148 229 176 204 q 60 265 125 248 q 55 275 55 267 q 62 285 55 286 q 134 279 106 279 q 201 329 174 279 q 395 747 274 461 z "},"雨":{"ha":1389,"x_min":66,"x_max":1321,"o":"m 718 1023 l 718 804 l 1114 804 q 1168 853 1160 853 q 1227 810 1177 853 q 1254 777 1254 789 q 1214 741 1254 764 l 1214 503 l 1219 28 q 1168 -52 1219 -26 q 1095 -72 1133 -72 q 1080 -68 1083 -72 q 1074 -52 1076 -65 q 1040 -11 1068 -26 q 926 22 1006 7 q 921 32 921 24 q 928 42 921 42 q 1104 34 1045 34 q 1128 54 1128 34 l 1128 770 l 718 770 l 718 449 l 725 -14 q 665 -56 725 -56 q 627 -21 627 -56 l 633 359 l 633 770 l 245 770 l 245 -51 q 191 -92 245 -92 q 155 -57 155 -92 l 161 391 q 154 857 161 777 q 260 804 214 833 l 633 804 l 633 1023 l 186 1023 q 80 1015 127 1023 l 66 1065 q 183 1057 123 1057 l 1124 1057 q 1203 1137 1191 1137 q 1288 1077 1213 1137 q 1321 1035 1321 1049 q 1303 1023 1321 1023 l 718 1023 m 804 659 q 801 664 801 661 q 813 674 801 676 q 977 602 916 652 q 1029 513 1029 559 q 1015 476 1029 491 q 989 464 1004 464 q 944 502 961 464 q 804 659 898 593 m 333 656 q 330 661 330 658 q 342 670 330 672 q 496 597 441 646 q 543 510 543 556 q 528 473 543 488 q 501 461 517 461 q 458 505 479 461 q 333 656 409 600 m 323 372 q 321 378 321 374 q 331 387 321 387 q 333 387 332 387 q 490 304 435 355 q 537 214 537 260 q 522 174 537 189 q 494 163 511 163 q 448 210 470 163 q 323 372 401 311 m 801 378 q 798 383 798 380 q 810 393 798 395 q 975 313 913 367 q 1027 221 1027 267 q 1014 184 1027 198 q 985 171 1002 171 q 939 212 960 171 q 801 378 883 319 z "},"雲":{"ha":1389,"x_min":75,"x_max":1309,"o":"m 1010 50 q 278 -53 654 -24 q 248 -93 265 -93 q 204 39 230 -93 q 313 35 258 35 q 409 37 375 35 q 517 253 476 153 l 221 253 q 123 246 185 253 l 109 296 q 220 288 163 288 l 1106 288 q 1179 358 1169 358 q 1257 304 1190 358 q 1291 265 1291 276 q 1271 253 1291 253 l 628 253 q 454 38 538 120 q 782 56 635 45 q 988 75 843 60 q 859 178 936 131 q 856 184 856 180 q 866 195 856 196 q 1097 84 1010 158 q 1168 -35 1168 23 q 1154 -71 1168 -56 q 1125 -83 1142 -83 q 1095 -70 1109 -83 q 1063 -24 1083 -58 q 1010 50 1040 14 m 232 914 l 642 914 l 642 1036 l 371 1036 q 270 1029 318 1036 l 254 1079 q 370 1071 326 1071 l 989 1071 q 1059 1140 1047 1140 q 1137 1087 1069 1140 q 1170 1048 1170 1061 q 1150 1036 1170 1036 l 724 1036 l 724 914 l 1160 914 q 1211 962 1201 962 q 1278 916 1224 962 q 1309 871 1309 890 q 1258 850 1309 850 q 1225 836 1241 850 q 1145 764 1181 790 q 1141 763 1143 763 q 1133 770 1133 763 q 1133 772 1133 771 q 1170 880 1159 835 l 724 880 l 724 789 l 730 541 q 674 505 730 505 q 636 535 636 505 l 642 751 l 642 880 l 233 880 q 200 743 233 793 q 125 699 171 699 q 87 715 102 699 q 75 748 75 728 q 113 796 75 778 q 212 955 199 844 q 219 960 212 960 q 228 954 227 960 q 232 914 232 932 m 799 718 l 787 768 q 871 760 836 760 l 983 760 q 1036 814 1029 814 q 1101 765 1045 814 q 1118 739 1118 750 q 1101 725 1118 725 l 873 725 q 799 718 844 725 m 800 564 l 788 612 q 880 606 835 606 l 1031 606 q 1088 661 1076 661 q 1153 616 1098 661 q 1177 583 1177 596 q 1160 571 1177 571 l 881 571 q 800 564 847 571 m 281 720 l 267 768 q 353 760 319 760 l 452 760 q 502 808 490 808 q 563 764 509 808 q 583 739 583 746 q 566 725 583 725 l 353 725 q 281 720 317 725 m 235 564 l 221 612 q 310 606 267 606 l 448 606 q 503 659 493 659 q 559 616 512 659 q 584 582 584 593 q 568 571 584 571 l 311 571 q 235 564 279 571 m 274 397 l 260 448 q 376 440 317 440 l 963 440 q 1032 504 1022 504 q 1106 454 1044 504 q 1137 418 1137 429 q 1118 406 1137 406 l 371 406 q 274 397 332 406 z "},"静":{"ha":1389,"x_min":68,"x_max":1364,"o":"m 876 991 l 1027 991 q 1080 1042 1068 1042 q 1138 998 1093 1042 q 1163 961 1163 973 q 1107 932 1163 947 q 973 768 1048 846 l 1116 768 q 1164 810 1154 810 q 1215 777 1174 810 q 1238 745 1238 758 q 1204 710 1238 732 l 1204 549 l 1232 549 q 1284 610 1274 610 q 1343 561 1294 610 q 1364 526 1364 541 q 1344 514 1364 514 l 1204 514 q 1207 303 1204 401 q 1209 228 1209 229 q 1159 195 1209 195 q 1126 224 1126 195 l 1126 286 l 976 286 l 981 5 q 947 -71 981 -44 q 873 -97 911 -97 q 854 -93 857 -97 q 848 -76 850 -90 q 820 -34 844 -49 q 726 -1 794 -19 q 720 8 720 1 q 727 17 720 18 q 873 7 811 7 q 897 28 897 7 l 897 286 l 787 286 q 691 278 732 286 l 677 329 q 787 321 730 321 l 897 321 l 897 514 l 755 514 q 665 506 711 514 l 652 557 q 755 549 715 549 l 897 549 l 897 734 l 840 734 q 736 724 789 734 l 723 777 q 838 768 778 768 l 937 768 q 1027 957 995 864 l 857 957 q 673 747 783 835 q 669 746 671 746 q 658 755 658 746 q 659 758 658 757 q 829 1085 766 888 q 846 1162 844 1135 q 973 1105 973 1123 q 919 1076 973 1085 q 895 1029 911 1061 q 876 991 883 1005 m 1126 549 l 1126 734 l 976 734 l 976 549 l 1126 549 m 1126 514 l 976 514 l 976 321 l 1126 321 l 1126 514 m 519 197 l 248 197 q 246 -64 246 35 q 197 -104 246 -104 q 164 -71 164 -104 l 170 359 q 164 595 170 542 q 257 547 214 574 l 510 547 q 557 587 545 587 q 607 553 568 587 q 629 522 629 534 q 599 489 629 509 l 599 345 l 603 16 q 566 -64 603 -34 q 494 -90 530 -90 q 473 -69 477 -90 q 448 -26 469 -40 q 363 4 424 -9 q 358 13 358 5 q 365 21 358 22 q 497 13 447 13 q 519 36 519 13 l 519 197 m 519 232 l 519 355 l 248 355 l 248 232 l 519 232 m 519 390 l 519 513 l 248 513 l 248 390 l 519 390 m 347 694 l 347 817 l 228 817 q 154 808 194 817 l 140 861 q 226 851 184 851 l 347 851 l 347 964 l 189 964 q 109 956 159 964 l 96 1007 q 187 999 139 999 l 347 999 q 340 1157 347 1106 q 453 1138 427 1147 q 472 1120 472 1131 q 426 1085 472 1105 l 426 999 l 550 999 q 606 1055 595 1055 q 672 1008 617 1055 q 697 977 697 989 q 679 964 697 964 l 426 964 l 426 851 l 524 851 q 576 901 566 901 q 640 857 587 901 q 659 830 659 841 q 642 817 659 817 l 426 817 l 426 694 l 558 694 q 615 751 604 751 q 680 707 627 751 q 705 672 705 687 q 687 660 705 660 l 161 660 q 81 652 132 660 l 68 704 q 162 694 112 694 l 347 694 z "}}}
